<svg xmlns="http://www.w3.org/2000/svg" width="600" height="143.587" viewBox="0 0 450 107.69"><defs><clipPath id="a"><path d="M19 6h168v101.691H19zm0 0"/></clipPath></defs><g clip-path="url(#a)"><path d="M183.164 63.215c-.621-.235-1.242-.45-1.871-.727-7.754-3.465-10.79-10.152-8.793-20.047 1.074-5.605 2.145-11.207 3.215-16.808.46-2.719.347-3.524-.328-4.028-1.106-.828-2.332.48-3.524 1.57-18.582 17.048-37.16 34.114-55.746 51.16-5.36 4.567-9.097 7.478-15.437 6-3.317-.776-7.618-3.784-8.297-9.98-.582-6.449.094-12.785 1-19.144.207-1.461.754-4.98-1.317-5.246-1.007-.23-2.27.117-2.832.355-.93.395-1.949.942-3.039 1.625-9.312 5.832-23.652 21.164-27.902 25.617-6.45 6.754-13.25 14.688-20.566 24.008a519.306 519.306 0 00-7.75 10.121l-10.051-5.875-.153-.082c.024-.035.235-.312.262-.347 8.512-10.723 38.278-44.383 57.094-58.125 11.687-8.528 22.523-6.594 27.719 6.855 1.859 4.836 2.363 10.012 2.03 14.528 20.837-18.598 39.997-33.954 60.833-52.547 3.582-3.176 8.293-6.852 13.172-4.38 2.566 1.302 4.25 3.864 5.113 7.384 3.762 15.378-5.293 29.91-3.215 45.707.11.8.23 1.617.383 2.406" fill-rule="evenodd" fill="#e7e8e9"/></g><path d="M10.523 101.54L0 96.77c17.55-21.207 39.059-45 60.742-62.766 2.356-1.934 5.676-3.54 9.254-3.555 10.453-.054 17.356 7.028 17.98 16.078.266 3.883-.03 8.34-1.074 13.2C108.355 41.516 129.81 23.3 151.254 5.086c3.684-3.125 8.52-6.715 13.543-4.29 2.652 1.266 4.383 3.774 5.27 7.231 4.128 16.078-6.294 33.871-2.247 50.586-10.777-2.797-15.273-9.804-12.93-21.008 1.087-5.488 2.18-10.98 3.262-16.46.465-2.668.352-3.454-.34-3.95-1.117-.812-2.363.473-3.57 1.535-18.82 16.711-37.637 33.426-56.46 50.133-5.43 4.469-9.212 7.32-15.63 5.867-3.375-.753-7.726-3.703-8.406-9.77-.586-6.32.192-12.42 1.113-18.663.09-.61.52-2.887.547-4.73.012-1.442-.125-2.305-.73-2.512-.446-.164-1.067.035-1.864.605-3.492 2.512-6.882 5.64-10.117 8.469-14.199 12.367-30.941 28.398-52.172 53.41" fill-rule="evenodd" fill="#46c7f4"/><path d="M257.52 49.32c.476 0 .945-.164 1.265-.558.387-.305.55-.793.55-1.262 0-.559-.163-.957-.55-1.348a1.834 1.834 0 00-1.34-.558c-.55 0-1.015.156-1.336.558-.398.313-.558.79-.558 1.348 0 .55.16.957.558 1.352.32.304.786.468 1.41.468m-19.144-1.504c.555 0 .945-.242 1.34-.558.32-.317.476-.793.476-1.348s-.156-1.035-.476-1.347a2.667 2.667 0 00-.55-.399c-.235-.078-.474-.164-.79-.164-.55 0-1.023.164-1.34.563-.394.398-.555.792-.555 1.347 0 .555.16 1.031.555 1.348.317.316.79.558 1.34.558m-29.793 1.27l.398.074h.711c.309 0 .625-.16.946-.476.39-.387.547-.868.547-1.34 0-.563-.157-1.04-.547-1.352-.32-.398-.785-.554-1.336-.554-.555 0-.95.156-1.266.554-.394.313-.55.79-.55 1.266s.077.875.234 1.113c.16.234.476.48.863.715m62.102 9.454V47.257c0-.715-.16-1.266-.395-1.664l-.937-.793-.48-.485-1.892-1.742V58.54h1.891m-45.629 7.929c-.547 0-.941.234-1.34.55a1.9 1.9 0 00-.554 1.352c0 .559.168 1.035.554 1.356a1.933 1.933 0 002.691 0 2 2 0 00.552-1.356c0-.558-.25-.953-.551-1.351-.406-.317-.875-.551-1.352-.551m49.418-24.524v-2.148c-1.5 0-2.293 0-2.45-.078l-.16-.153c-.077-.16-.077-.328-.155-.484l.078-.16h2.687v-2.219c-1.738 0-3.004.078-3.789.238-.55.079-.863.235-.945.317-.395.394-.551.789-.551 1.191 0 .473 0 .79.078.957 0 .16.078.313.156.39h-.629v2.15h1.891m174.434 5.077c.547 0 1.093-.168 1.496-.48.39-.313.625-.719.625-1.273 0-.633-.235-1.024-.707-1.426-.383-.313-.867-.477-1.414-.477-.551 0-1.024.164-1.508.559-.383.32-.629.793-.629 1.344 0 .48.246.96.629 1.273.406.312.957.48 1.508.48m.941 1.907c0 .547.234 1.023.629 1.347.48.317.95.473 1.5.473.547 0 1.094-.156 1.492-.473.403-.324.633-.718.633-1.277 0-.543-.23-1.031-.715-1.422-.387-.32-.863-.48-1.496-.48a2.19 2.19 0 00-1.414.48c-.477.317-.629.793-.629 1.352m-4.019 1.82c.628 0 1.097-.16 1.5-.473.394-.324.628-.718.628-1.277a1.7 1.7 0 00-.628-1.344c-.48-.398-.95-.554-1.5-.554-.547 0-1.024.156-1.5.476a1.723 1.723 0 00-.633 1.352c0 .629.246 1.023.719 1.347.39.313.867.473 1.414.473m-54.762-1.664l.316.074h.715c.305 0 .719-.16 1.016-.476.312-.387.55-.868.55-1.34 0-.563-.238-1.04-.55-1.352-.395-.398-.782-.554-1.328-.554-.555 0-1.032.156-1.356.554-.305.313-.46.79-.46 1.266s.073.875.237 1.113c.149.234.387.48.86.715m5.914.07h.082c.469 0 .945-.156 1.254-.472.394-.387.558-.79.558-1.34 0-.563-.164-1.04-.558-1.352-.309-.398-.785-.554-1.336-.554-.477 0-.945.156-1.262.554-.402.313-.547.79-.547 1.352 0 .55.145.953.47 1.34.394.316.788.472 1.339.472m-176.809 0c.555 0 .957-.156 1.34-.472.313-.387.477-.79.477-1.34 0-.563-.164-1.04-.477-1.352a1.815 1.815 0 00-1.34-.554c-.55 0-.937.156-1.336.554-.394.313-.55.79-.55 1.352 0 .55.156.953.55 1.34.313.316.786.472 1.336.472m136.168 13.813c-.148.242-.476.324-.855.324-.406 0-.637-.082-.88-.324-.151-.242-.308-.551-.308-.95 0-.316.157-.636.387-.863.242-.168.48-.32.8-.32.38 0 .708.152.856.387.23.242.325.558.325.879 0 .316-.094.625-.325.867m-15.66-3.012h-1.973c0-.395 0-.633.063-.71.164-.481.41-.88.723-1.188.074 0 .156-.086.156-.168.312-.153.629-.23 1.031-.317zm25.606-14.762a3.17 3.17 0 00-.317 1.434v13.328h-6.082c-.148-.395-.543-.867-1.02-1.355-.398-.387-.792-.711-1.265-.942l-.469-.242a2.84 2.84 0 01-.469-.395c-.167-.242-.398-.558-.632-1.03l-.547-1.04-.801 1.746c-.078.16-.387.403-.863.797l-1.418 1.04c-.555.468-.946.944-1.176 1.421h-6.773v-7.934a62.985 62.985 0 01-2.368 1.266c-.398.082-.703.082-1.02.168-.312 0-.788.078-1.343.23h-.074a3.751 3.751 0 00-1.258.399c-.25.074-.644.394-1.11.797-.874.629-1.495 1.496-1.898 2.691-.148.485-.23 1.028-.312 1.59-.074.559-.145 1.113-.145 1.824v3.258h5.828v1.902h-5.757c0 .399 0 .797.074 1.114 0 .312.164.629.246.945.308.64.933 1.2 1.965 1.672.86.394 1.652.633 2.285.633h.082c.629 0 1.176-.075 1.644-.239.485-.16.95-.394 1.508-.707.867-.484 1.406-1.277 1.574-2.304.079-.164.079-.559.079-1.032v-1.984h6.68c.402.867.956 1.586 1.745 2.067.782.55 1.645.785 2.606.785 1.012 0 1.883-.235 2.668-.785.797-.555 1.426-1.2 1.812-2.067h9.711V42.574l-2.285 1.586c-.547.317-.863.64-1.105 1.035m7.676.16c-.227.395-.317.875-.317 1.426v17.465h3.703V42.574l-2.445 1.676c-.39.313-.696.71-.942 1.105m78.723 9.685c-.469.308-.707.792-.793 1.425v3.492h-1.488v-5.238l-2.77 1.273c-.469.235-.781.637-.93 1.184v.883c-.093.48-.093 1.105-.093 1.898h-1.578v-3.809l-2.82 1.348c-.32.168-.563.32-.715.477l-.56.793c0 .086 0 .086-.077.238v.953H430v-3.895l-2.922 1.516-.394.238c-.157.075-.243.243-.317.313-.238.32-.472.637-.547 1.035 0 .16 0 .316-.09.477v5.718h-4.011c0 .559.074 1.11.312 1.59.239.469.63.942 1.024 1.422.793.793 1.742 1.195 2.765 1.195 1.02 0 1.813-.246 2.434-.636.633-.48 1.101-1.118 1.5-1.914.078-.239.152-.63.246-1.024v-1.746h4.402c9.68-.082 14.73-.164 15.043-.476.39-.235.555-.715.555-1.352v-8.883m-127.723-8.18c-.238.395-.316.875-.316 1.426v17.465h3.703V42.574l-2.363 1.676c-.469.313-.79.71-1.024 1.105m67.763 14.602h-2.997c0-.71.238-1.27.781-1.742.238-.242.473-.399.723-.477.226-.16.379-.16.543-.16h.95zm29.554-4.68c-.64-.558-1.11-.87-1.348-1.117-.46-.238-1.101-.394-1.73-.394h-7.418c-1.02 0-1.645-.078-1.805-.157-.09-.152-.156-.32-.234-.476l.144-.238.555-.325.469-.23 8.918-4.043.43-2.258-18.083 8.203c-.32.164-.547.477-.715.95-.148.402-.238.718-.238.956 0 .317 0 .551.09.711l.148.637c2.758 0 5.442 0 8.043.082h7.016c.95 0 1.492 0 1.59.086.137 0 .297.152.539.309.234.242.394.629.394 1.03v.954H393.75v-8.332l-1.195 1.04a4.799 4.799 0 01-1.176.706v.086c-.399.152-.867.23-1.5.23h-.79c-.234 0-.398.079-.542.079h-.406c-.317 0-.696.09-1.172.32-.313.074-.551.238-.785.394-.082.083-.247.16-.32.239-.954.875-1.66 1.746-2.051 2.777-.16.477-.317.953-.399 1.43-.078.554-.16 1.113-.16 1.742v3.578h34.918c.39 0 .707-.164 1.023-.316.313-.242.547-.477.703-.875l.082-.637c0-4.05 0-6.191-.082-6.508-.156-.316-.23-.562-.304-.633m-206.434 4.68h-2.918c0-.71.242-1.27.707-1.742.317-.242.555-.399.707-.477.239-.16.395-.16.555-.16h.95zm14.258-2.937c-.152.476-.152 1.43-.152 2.937h-10.403v-8.332l-1.183 1.04c-.399.308-.79.546-1.184.792-.398.152-.863.23-1.418.23h-.867c-.16 0-.395.079-.555.079h-.308c-.399 0-.79.09-1.262.32a5.024 5.024 0 00-1.106.633c-.945.875-1.656 1.746-2.046 2.777-.157.477-.235.953-.32 1.43-.157.554-.157 1.113-.157 1.742v3.578h22.547c.387 0 .863-.242 1.258-.64.465-.395.703-.79.703-1.27v-8.414l-2.598 1.75c-.472.39-.867.879-.949 1.348m28.219.87s0-.074.07-.074h5.844v-6.754l-1.5 2.149c-.317.16-.715.246-1.266.324l-1.183.078c-.239 0-.551 0-.864-.078h-.789c-.242 0-.394-.078-.633-.078h-.55c-.559 0-1.02.078-1.426.309-.38.242-.86.64-1.25 1.273-.399.555-.63 1.188-.63 1.82 0 .637.075 1.2.231 1.68.16.465.399.941.63 1.418h-5.356c0-2.46-.074-3.895-.156-4.207-.16-.402-.403-.71-.793-1.031-.395-.313-.79-.559-1.18-.711-.32-.153-.79-.242-1.258-.242-3.863 0-6.07-.309-6.621-.871-.242-.235-.555-.72-1.098-1.508v6.11c4.563 0 6.84.163 7.086.32.082.074.235.312.305.55v1.59h-9.05v4.29h29.472v-4.29c-4.645 0-7.176-.234-7.488-.71-.309-.395-.477-.798-.547-1.356m-27.192 8.578a1.91 1.91 0 00-1.343.55c-.313.399-.551.793-.551 1.352s.238 1.035.55 1.356c.399.316.794.546 1.426.546.477 0 .946-.23 1.262-.546.387-.407.55-.88.55-1.356 0-.558-.163-1.027-.472-1.351-.394-.317-.863-.551-1.422-.551" fill="#221e1f"/><path d="M282.82 45.195c-.238.317-.398.797-.398 1.434v13.328h-4.965V42.574l-2.36 1.672c-.476.395-.71.715-.949 1.191-.234.387-.312.868-.312 1.418 0 11.91-.16 18.106-.395 18.579-.316.554-.703.796-1.261.796-.473 0-.868-.242-1.18-.87-.16-.4-.316-.958-.316-1.512v-3.891h-3.704c0 4.684.551 7.547 1.657 8.727.074.082.152.164.234.246 1.024.949 2.129 1.507 3.309 1.507 1.261 0 2.441-.558 3.39-1.507 1.024-.953 1.657-2.067 1.887-3.344v-1.34h8.754V42.574l-2.367 1.586c-.48.317-.871.64-1.024 1.035m31.496 13.098a7.163 7.163 0 00-.476.953v6.113h-4.094c.156.871.324 1.504.559 1.985.23.547.703 1.027 1.41 1.422a5.72 5.72 0 002.601.636c.946 0 1.813-.32 2.606-1.03.781-.716 1.172-1.595 1.172-2.7v-9.61l-2.989 1.434c-.238.168-.476.395-.789.797m-6.3-3.574c-.403-.313-.72-.559-1.11-.711a3.32 3.32 0 00-1.254-.242c-3.941 0-6.156-.309-6.707-.871-.148-.235-.55-.72-1.02-1.508v6.11c4.485 0 6.856.163 7.016.32.16.074.243.312.313.55v1.59h-9.055v4.29h6.14c1.966 0 3.313 0 4.095-.083h1.34l.48-.234c.148-.082.383-.325.543-.637.082-.398.16-.637.16-.957 0-4.043 0-6.273-.16-6.586-.16-.402-.395-.71-.781-1.031M132.004 80.43c0-.34-.145-.582-.434-.723-.293-.137-.86-.223-1.71-.25v-.434h5.675l4.297 8.793 4.606-8.793h5.554v.434c-.808 0-1.347.098-1.62.297-.27.195-.407.61-.407 1.234v8.606c0 .62.137 1.031.406 1.23.274.203.813.305 1.621.305v.422h-7.176v-.422c.809 0 1.348-.102 1.63-.309.28-.203.417-.613.417-1.226v-8.977l-4.656 8.852c-.117.215-.258.508-.426.879-.168.37-.351.789-.554 1.257h-.758a9.583 9.583 0 00-.348-.921c-.14-.329-.305-.676-.488-1.036l-4.414-8.886v8.832c0 .613.136 1.023.418 1.226.281.207.824.309 1.633.309v.422h-5.29v-.422c.805 0 1.344-.102 1.618-.305.273-.199.406-.61.406-1.23m23.66-2.571h4.871l-2.414-4.652zm-4.824 4.528v-.442c.594-.066 1.082-.257 1.476-.574.391-.316.88-1.027 1.461-2.14l4.004-7.684c.153-.273.301-.559.45-.867.156-.305.304-.63.464-.965h.72l5.487 10.508c.188.367.375.668.559.906.187.238.363.406.535.5.156.09.332.16.531.207.2.05.418.074.66.074v.477h-6.898l.012-.442c.597-.02 1.039-.097 1.328-.234.285-.137.43-.34.43-.613a.72.72 0 00-.04-.219 2.618 2.618 0 00-.12-.313l-.84-1.777h-5.871l-.711 1.469c-.063.117-.11.223-.137.324a1.443 1.443 0 00-.035.324c0 .325.12.575.363.746.246.172.602.258 1.066.258h.223v.477m17.16.297l-4.984-10.68c-.281-.602-.563-1.02-.84-1.262-.281-.238-.637-.39-1.074-.449v-.434h6.258v.426c-.575.024-.973.09-1.196.203a.555.555 0 00-.332.535c0 .106.02.235.059.383.039.149.09.301.152.453l3.344 7.317 2.617-5.23-1.023-2.087c-.262-.543-.575-.941-.93-1.18-.36-.238-.816-.37-1.375-.394v-.426h7.059v.426c-.63.028-1.082.11-1.36.242-.273.13-.414.336-.414.614a1.39 1.39 0 00.152.551l3.625 7.503 3.098-6.949c.094-.203.164-.39.203-.566.047-.172.067-.332.067-.485 0-.3-.145-.523-.426-.664-.281-.14-.758-.222-1.414-.246v-.426h4.844v.434c-.489.102-.899.309-1.215.613-.325.305-.633.797-.938 1.47l-4.652 10.308h-.813l-3.855-7.614-3.8 7.614m18.234-4.825h4.867l-2.41-4.652zm-4.825 4.528v-.442c.59-.066 1.082-.257 1.473-.574.39-.316.879-1.027 1.465-2.14l4.004-7.684c.148-.273.297-.559.449-.867.152-.305.305-.63.46-.965h.724l5.484 10.508c.187.367.375.668.558.906.188.238.368.406.54.5.156.09.332.16.53.207.196.05.419.074.657.074v.477h-6.894l.007-.442c.598-.02 1.043-.097 1.332-.234.286-.137.43-.34.43-.613a.74.74 0 00-.043-.219 2.084 2.084 0 00-.121-.313l-.84-1.777h-5.871l-.71 1.469a1.537 1.537 0 00-.134.324 1.504 1.504 0 00-.039.324c0 .325.121.575.367.746.243.172.598.258 1.063.258h.223v.477m17.39-6.313h1.188c1.285 0 2.27-.25 2.965-.758.695-.507 1.042-1.222 1.042-2.144 0-.8-.32-1.426-.972-1.879-.649-.45-1.555-.676-2.719-.676-.629 0-1.035.059-1.223.18-.187.121-.28.371-.28.75zm-5.277 6.313v-.422c.816 0 1.363-.102 1.637-.309.277-.203.414-.61.414-1.226v-8.606c0-.617-.137-1.027-.414-1.23-.274-.2-.82-.301-1.637-.301v-.434h6.992c2.29 0 3.996.278 5.117.829 1.125.554 1.684 1.394 1.684 2.52 0 .843-.336 1.546-1.004 2.1-.676.551-1.707.973-3.094 1.262l4.692 4.598c.273.266.554.465.847.598.29.132.598.199.922.199v.422h-4.316l-5.2-5.293a.866.866 0 00-.277-.192 1.022 1.022 0 00-.351-.054h-.735v3.582c0 .62.137 1.031.406 1.23.274.203.813.305 1.622.305v.422m17.043-12.528v.434c-.91 0-1.516.106-1.829.309-.312.21-.464.617-.464 1.222v8.606c0 .597.156 1 .468 1.215.313.21.922.32 1.825.32v.422h-7.899v-.422c.906 0 1.516-.102 1.824-.309.305-.203.457-.61.457-1.226v-8.606c0-.613-.152-1.02-.457-1.226-.308-.203-.918-.305-1.824-.305v-.434m14.191 10.446c0 .539.133.894.399 1.066.27.172.785.262 1.555.262 2.16 0 3.8-.457 4.921-1.375 1.125-.914 1.684-2.246 1.684-4.004 0-1.828-.574-3.223-1.723-4.191-1.148-.965-2.816-1.446-4.996-1.446-.746 0-1.238.078-1.48.235-.238.156-.36.484-.36.992zm2.598-10.446c2.856 0 5.117.582 6.774 1.754 1.656 1.168 2.488 2.758 2.488 4.77 0 1.941-.824 3.426-2.469 4.457-1.648 1.031-4.02 1.547-7.121 1.547h-7.547v-.422c.817 0 1.36-.102 1.637-.309.273-.203.41-.613.41-1.226v-8.606c0-.62-.137-1.031-.41-1.23-.278-.2-.82-.301-1.637-.301v-.434m38.277 0l.094 2.762h-.57c-.203-.719-.567-1.21-1.098-1.492-.527-.277-1.402-.414-2.633-.414h-3.05c-.457 0-.754.039-.88.117-.128.078-.19.246-.19.504v4.035h3.456c.832 0 1.454-.125 1.86-.37.41-.247.672-.653.785-1.216h.594v4.352h-.57c-.137-.692-.458-1.188-.958-1.48-.492-.294-1.27-.438-2.324-.438h-2.844v4.21c0 .598.133 1 .407 1.216.273.21.78.32 1.527.32h.117v.422h-7.308v-.422c.82 0 1.363-.102 1.64-.309.274-.203.41-.61.41-1.226v-8.606c0-.617-.136-1.027-.41-1.23-.277-.2-.82-.301-1.64-.301v-.434m23.082.434c-1.493 0-2.622.488-3.399 1.469-.77.98-1.156 2.422-1.156 4.332 0 1.918.383 3.367 1.152 4.351.77.993 1.903 1.485 3.403 1.485 1.492 0 2.62-.492 3.382-1.485.766-.984 1.149-2.43 1.149-4.336 0-1.918-.383-3.367-1.149-4.347-.761-.98-1.89-1.469-3.382-1.469m0-.742c2.421 0 4.351.594 5.789 1.785 1.437 1.184 2.156 2.785 2.156 4.793 0 1.996-.719 3.586-2.156 4.773-1.438 1.188-3.368 1.782-5.79 1.782-2.425 0-4.359-.594-5.804-1.785-1.442-1.192-2.164-2.79-2.164-4.79 0-1.996.722-3.59 2.164-4.773 1.445-1.191 3.379-1.785 5.805-1.785m18.007.742c-1.492 0-2.62.488-3.394 1.469-.774.98-1.16 2.422-1.16 4.332 0 1.918.382 3.367 1.156 4.351.766.993 1.898 1.485 3.398 1.485 1.493 0 2.621-.492 3.383-1.485.766-.984 1.149-2.43 1.149-4.336 0-1.918-.383-3.367-1.149-4.347-.762-.98-1.89-1.469-3.383-1.469m0-.742c2.422 0 4.356.594 5.79 1.785 1.437 1.184 2.156 2.785 2.156 4.793 0 1.996-.72 3.586-2.157 4.773-1.433 1.188-3.367 1.782-5.789 1.782-2.421 0-4.355-.594-5.8-1.785-1.446-1.192-2.168-2.79-2.168-4.79 0-1.996.722-3.59 2.168-4.773 1.445-1.191 3.378-1.785 5.8-1.785m14.934 10.754c0 .539.137.894.402 1.066.27.172.785.262 1.555.262 2.16 0 3.8-.457 4.922-1.375 1.121-.914 1.683-2.246 1.683-4.004 0-1.828-.574-3.223-1.722-4.191-1.149-.965-2.817-1.446-5-1.446-.746 0-1.238.078-1.48.235-.239.156-.36.484-.36.992zm2.598-10.446c2.859 0 5.117.582 6.773 1.754 1.66 1.168 2.488 2.758 2.488 4.77 0 1.941-.824 3.426-2.468 4.457-1.649 1.031-4.02 1.547-7.118 1.547h-7.55v-.422c.816 0 1.363-.102 1.636-.309.278-.203.414-.613.414-1.226v-8.606c0-.62-.136-1.031-.414-1.23-.273-.2-.82-.301-1.636-.301v-.434m40.402 9.446a6.784 6.784 0 01-2.879 2.527c-1.203.57-2.64.852-4.309.852-1.21 0-2.328-.157-3.343-.48a7.879 7.879 0 01-2.668-1.423c-.715-.601-1.246-1.28-1.594-2.043-.352-.757-.527-1.617-.527-2.574 0-2.035.75-3.644 2.25-4.832 1.5-1.187 3.523-1.781 6.082-1.781.992 0 2.472.215 4.437.64a.96.96 0 00.582-.168c.156-.109.293-.292.418-.55h.711l.317 4.12h-.547c-.602-1.12-1.352-1.956-2.25-2.51-.903-.556-1.957-.837-3.168-.837-1.696 0-3.02.524-3.98 1.567-.958 1.043-1.434 2.488-1.434 4.335 0 1.704.5 3.043 1.504 4.008 1.003.973 2.394 1.457 4.164 1.457 1.168 0 2.187-.21 3.066-.632.879-.418 1.676-1.086 2.398-1.993m10.427-8.695c-1.493 0-2.622.488-3.395 1.469-.774.98-1.16 2.422-1.16 4.332 0 1.918.382 3.367 1.156 4.351.765.993 1.898 1.485 3.398 1.485 1.492 0 2.621-.492 3.387-1.485.762-.984 1.144-2.43 1.144-4.336 0-1.918-.382-3.367-1.144-4.347-.766-.98-1.895-1.469-3.387-1.469m0-.742c2.422 0 4.356.594 5.79 1.785 1.437 1.184 2.156 2.785 2.156 4.793 0 1.996-.72 3.586-2.157 4.773-1.433 1.188-3.367 1.782-5.789 1.782-2.426 0-4.36-.594-5.804-1.785-1.442-1.192-2.165-2.79-2.165-4.79 0-1.996.723-3.59 2.165-4.773 1.445-1.191 3.378-1.785 5.804-1.785m11.403 1.715c0-.34-.149-.582-.438-.723-.289-.137-.86-.223-1.703-.25v-.434h5.672l4.297 8.793 4.605-8.793h5.555v.434c-.809 0-1.348.098-1.617.297-.274.195-.41.61-.41 1.234v8.606c0 .62.136 1.031.41 1.23.27.203.808.305 1.617.305v.422h-7.176v-.422c.809 0 1.352-.102 1.629-.309.281-.203.422-.613.422-1.226v-8.977l-4.66 8.852c-.118.215-.258.508-.426.879-.164.37-.352.789-.555 1.257h-.758a9.582 9.582 0 00-.347-.921c-.14-.329-.305-.676-.489-1.036l-4.414-8.886v8.832c0 .613.137 1.023.418 1.226.282.207.825.309 1.633.309v.422h-5.289v-.422c.805 0 1.344-.102 1.617-.305.27-.199.407-.61.407-1.23m24.57-4.047h1.363c1.156 0 2.07-.281 2.735-.832.668-.555 1.003-1.313 1.003-2.274 0-.816-.32-1.46-.957-1.933-.632-.477-1.507-.707-2.62-.707-.66 0-1.079.058-1.255.18-.18.12-.27.363-.27.73zm2.863-6.524c1.758 0 3.121.305 4.098.915.972.609 1.46 1.464 1.46 2.558 0 1.29-.542 2.246-1.624 2.879-1.082.629-2.73.945-4.934.945h-1.863v3.274c0 .62.137 1.031.406 1.23.274.2.813.305 1.621.305v.422h-7.304v-.422c.816 0 1.359-.106 1.636-.309.274-.203.41-.61.41-1.226v-8.606c0-.62-.136-1.027-.41-1.23-.277-.2-.82-.301-1.636-.301v-.434m17.707 8h4.87l-2.413-4.652zm-4.825 4.528v-.442c.594-.066 1.082-.257 1.477-.574.39-.316.875-1.027 1.46-2.14l4.009-7.684a19.8 19.8 0 00.445-.867c.156-.305.309-.63.465-.965h.719l5.488 10.508c.187.367.375.668.558.906.188.238.368.406.536.5.156.09.332.16.53.207.2.05.419.074.657.074v.477h-6.894l.011-.442c.598-.02 1.04-.097 1.328-.234.29-.137.43-.34.43-.613a.74.74 0 00-.043-.219 2.017 2.017 0 00-.117-.313l-.84-1.777h-5.875l-.707 1.469c-.062.117-.11.223-.137.324a1.503 1.503 0 00-.035.324c0 .325.117.575.363.746.247.172.598.258 1.067.258h.223v.477m15.14-9.731v7.774c0 .617.14 1.023.418 1.226.281.207.828.309 1.645.309v.422h-5.301v-.422c.808 0 1.348-.102 1.621-.305.27-.199.406-.61.406-1.23V80.69c-.383-.414-.75-.714-1.105-.906a2.688 2.688 0 00-1.156-.312l-.012-.45h4.344l9.648 8.598v-6.633c0-.617-.14-1.027-.422-1.23-.277-.2-.824-.301-1.64-.301v-.434h5.3v.434c-.808 0-1.347.098-1.62.297-.27.195-.407.61-.407 1.234v9.309a20.511 20.511 0 00.07 1.543l-.617.008a196.777 196.777 0 00-4.414-3.965c-.383-.34-.617-.551-.711-.633m14.715-1.589l-4.371-4.941c-.012-.02-.04-.047-.078-.09-.641-.715-1.364-1.094-2.18-1.137v-.469h7.516v.434c-.618 0-1.067.063-1.352.184-.289.125-.434.32-.434.59 0 .195.145.453.434.777l.031.055 3.16 3.652 3.075-3.602c.164-.183.27-.332.328-.445a.767.767 0 00.082-.344c0-.265-.14-.469-.41-.605-.274-.14-.703-.227-1.293-.262v-.434h5.324v.47a3.363 3.363 0 00-1.27.491c-.386.25-.808.63-1.261 1.13l-4.098 4.546v3.934c0 .594.156 1 .477 1.215.32.21.93.32 1.832.32v.422h-7.797v-.422c.91 0 1.515-.106 1.824-.309.305-.203.46-.61.46-1.226" fill="#221e1f"/></svg>