<svg xmlns="http://www.w3.org/2000/svg" height="800" width="1200" viewBox="-45.001 -31.035 390.005 186.212"><defs><linearGradient gradientUnits="userSpaceOnUse" gradientTransform="matrix(155.82 .29132 .29132 -155.82 127.39 754.34)" x2="1" id="a"><stop offset="0" stop-color="#45ac44"/><stop offset=".633" stop-color="#45ac44"/><stop offset="1" stop-color="#328c43"/></linearGradient></defs><path fill="#1a4030" d="M261.638 101.153c-28.66-11.524-58.417-2.166-94.558 7.192-31.131 8.06-67 16.12-110.988 10.837C1.107 112.585-18.172 44.334 28.304.38-22.603 46.446.474 114.57 55.39 121.718c45.635 5.944 81.828-1.903 113.113-9.748 34.272-8.592 62.655-17.187 91.11-7.657 17.727 5.936 13.138 18.94 13.138 18.94s7.08-14.788-11.113-22.1"/><path fill="#1a4030" d="M86.902 123.307a247.87 247.87 0 01-31.451-2.084C29.945 117.907 9.827 100.826 2.944 76.66c-5.068-17.802-2.269-36.596 7.429-53.5C1.507 40.177-.811 59.217 4.483 76.801c7.176 23.85 26.449 39.89 51.56 42.902a238.162 238.162 0 0027.815 1.695c35.31.07 65.105-7.75 91.396-14.646 21.355-5.606 39.802-10.449 57.606-10.41 10.43.022 19.788 1.75 28.613 5.306 5.916 2.378 9.729 5.791 11.322 10.154.714 1.948.89 3.858.81 5.54a13.614 13.614 0 00-1.09-3.632c-2.025-4.393-6.311-7.717-12.753-9.875-8.39-2.805-17.115-4.183-26.689-4.2-17.872-.038-35.985 4.568-56.948 9.892-25.544 6.494-54.495 13.85-89.223 13.78"/><g fill="#45ac44"><path d="M272.324 123.021c.024-.052 2.568-5.511.465-11.243-1.593-4.353-5.404-7.769-11.314-10.142-8.827-3.555-18.185-5.284-28.615-5.307-17.804-.036-36.247 4.807-57.602 10.411-26.291 6.898-56.09 14.716-91.4 14.646a237.746 237.746 0 01-27.816-1.695c-25.108-3.011-44.383-19.05-51.56-42.899C-3.4 50.591 5.604 21.164 27.99 0l.723.658c-3.605 5.992-4.019 12.184-1.225 18.413 6.446 14.38 29.27 26.324 56.794 29.72 3.4.422 6.942.64 10.533.645 18.376.038 37.106-5.352 56.936-11.064 23.019-6.627 49.108-14.138 78.905-14.08a178.57 178.57 0 0127.35 2.173c34.776 5.46 40.8 32.417 41.777 43.756 2.023 23.503-10.034 47.512-26.872 53.52l-1.116.4.529-1.12"/><path d="M28.32.38C-18.155 44.332 1.124 112.583 56.109 119.182c43.986 5.283 79.855-2.777 110.986-10.837 36.143-9.358 65.898-18.716 94.558-7.192 18.193 7.312 11.115 22.1 11.115 22.1 32.375-11.548 43.914-87.062-14.823-96.286-39.498-6.211-71.808 2.099-100.866 10.407-25.94 7.42-49.29 14.837-72.84 11.925-40.39-4.986-68.735-27.622-55.92-48.92"/><path d="M261.638 101.153c-28.66-11.524-58.417-2.166-94.558 7.192-31.131 8.06-67 16.12-110.988 10.837C1.107 112.585-18.172 44.334 28.304.38 20.422 7.513 14.32 15.176 9.83 23.057.605 40.777-1.511 60.601 4.593 78.844c7.692 22.933 26.896 38.386 51.386 41.326a240.36 240.36 0 0027.79 1.698c35.42.079 65.282-7.755 91.625-14.668 21.33-5.6 39.757-10.434 57.494-10.394 10.343.027 19.632 1.744 28.38 5.265 5.644 2.269 9.321 5.486 10.926 9.566.77 1.952.948 3.864.88 5.556.587 3.431-.323 6.06-.323 6.06s7.08-14.788-11.113-22.1"/></g><path fill="url(#a)" d="M127.39 756.77c-.003-16.003 10.625-30.233 28.269-32.35l.072-.009c5.108-.61 10.009-.878 14.719-.879h.009c15.191.002 28.413 2.782 40.305 5.784 1.028.26 2.047.521 3.058.783 1.834.474 3.638.949 5.413 1.415 10.433 2.735 19.865 5.125 28.814 5.15h.199c5.11-.005 10.061-.788 14.952-2.727a.083.083 0 00.018-.007l.011-.004h.001a5.04 5.04 0 01.11-.044l.034-.014c5.363-2.156 6.535-5.551 6.535-8.109-.001-1.99-.71-3.473-.71-3.473 8.33 2.971 14.027 14.022 14.026 25.076 0 11.459-6.125 22.922-21.794 25.382a93.011 93.011 0 01-14.483 1.134c-14.362 0-26.857-3.294-38.376-6.588-11.519-3.294-22.062-6.588-32.522-6.588a45.92 45.92 0 00-5.649.34c-17.664 2.18-30.931 10.801-30.936 20.081-.001 1.84.519 3.707 1.631 5.554-9.442-8.929-13.705-19.773-13.706-29.907" transform="matrix(1.90822 0 0 -1.90822 -240.93 1501.537)"/><g fill="#1a4030"><path d="M91.768 96.02c0 .383-.044.803-.303 1.22-1.382 2.25-3.535 3.039-5.378 2.951l-.397-.048-.017-.06c-1.193-2.907-1.71-7.116-1.422-12.513.552-10.123 3.767-16.13 7.502-17.842.003 7.337.011 19.926.015 26.292m18.81 10.159c-2.123-.277-2.338-1.801-2.338-1.801l-.021-3.863c-.008-3.375-.018-19.94-.021-25.367l-.012-.418.004-6.662c-.042-1.395-.994-2.164-.994-2.164-1.153-1.025-3.357-2.543-5.654-3.456l.538.313c-3.032-1.906-10.257-2.715-10.257-2.715a24.208 24.208 0 00-2.793-.158c-8.465-.02-15.945 5.83-19.247 14.886l.058.013-.256.708-.033-.708.002.061c-.024-4.335-.05-8.618-.072-12.7.004-2.99.002-5.924-.002-8.72.002-.393-.02-.776-.034-1.143-.004-.467-.004-.927-.004-1.376-.004-3.906-.79-6.018-2.666-7.92-.786-.798-1.637-1.527-2.515-2.228-1.147-2.284-2.798-4.114-5.1-5.337a6.87 6.87 0 00-3.537-.986c-2.435-.008-4.581 1.246-5.864 2.232a2.394 2.394 0 00-1.118 2.03l.042.304c.931.475 1.906.924 2.885 1.374.172.527.145 1.057.145 1.057l.012 10.625c.002 3.681 0 8.034.011 11.663-3.259-.51-8.127-1.65-12.146-2.797l-.003-.058c.013-.751.011-1.522.007-2.284.004-.528.004-1.068.002-1.597-.004-4.534-.002-8.694-.002-9.923l-.004-.689c.006-.597.004-1.17-.019-1.728l-.003-.134c0-4.79-.611-7.055-2.33-9.2l-7.198-5.4-.004.067c-3.047-2.414-6.362-.672-8.238.758l-.355.625.424.663c1.051.461.95 2.068.95 2.068l.008 10.635c.013 14.905.042 32.275.04 46.056.002.573.061 1.199.313 1.693l.555.712-.114-.063c.89 1.135 3.79 4.91 4.537 5.642.497.495.895.943 1.725 1.277 2.136.878 4.914 2.06 7.765 2.973.876.277 1.962-.326 1.96-1.443-.002-.406 0-.843.002-1.312l.011-.216c.012-5.761 0-19.659-.008-25.622 3.807 1.09 7.979 2.132 12.131 2.92.013 6.72.027 17.552.017 22.89.002.493.109.98.325 1.373l.194.309c.945 1.2 3.712 4.055 4.805 5.349.668.794 1.292 1.158 2.17 1.324 2.566.51 5.79 1.06 8.816 1.391.86.096 1.654-.782 1.658-1.889 0-3.553-.01-7.452-.029-11.545a18 18 0 002.304 3.97l1.385 1.581c1.5 1.69 3.204 3.301 4.93 4.975 2.53 2.463 5.912 3.89 9.66 3.929l.565-.002h.332a13.2 13.2 0 004.078-.647l.092-.038.196-.06.239-.095.05-.01c1.667-.642 3.237-1.684 4.672-3.178 1.317 1.187 3.64 2.683 7.084 2.692 2.124.084 4.118-1.253 5.425-2.23l.353-.61z"/><path d="M91.444 69.037c-4.458 2.044-7.42 8.952-7.939 18.49-.288 5.42.208 9.74 1.472 12.832l.17.41.469.12.456.052.29.01c2.37.001 4.473-1.203 5.765-3.319.37-.61.414-1.214.414-1.61l-.016-27.48zm-3.454 41.207c-3.462-.031-6.706-1.344-9.135-3.712l-.74-.723c-1.483-1.43-2.882-2.786-4.145-4.202l-1.382-1.582a17.34 17.34 0 01-2.175-3.774l-1.464.295c.021 4.092.037 7.992.033 11.537-.002.66-.41 1.15-.779 1.147-3.288-.353-6.596-.948-8.797-1.377-.717-.14-1.185-.432-1.728-1.08-.483-.565-1.279-1.426-2.109-2.325-1.05-1.139-2.154-2.326-2.681-2.998-.277-.475-.357-.84-.359-1.215.014-5.335 0-16.168-.013-22.891v-.626l-.618-.116c-3.815-.727-7.984-1.735-12.064-2.907l-.971-.274v1c.005 5.963.02 19.856.01 25.614l-.016 1.538c.004.553-.468.757-.762.757-2.631-.809-5.053-1.801-6.997-2.606l-.92-.38c-.612-.246-.92-.556-1.34-.973-.724-.712-2.969-3.597-4.043-4.985l-.568-.721-.96 1.12.988-1.154-.385-.493c-.155-.313-.235-.757-.235-1.35.008-9.704-.01-21.18-.021-32.32l-.027-24.374c.05-.738-.189-2.221-1.4-2.75 1.17-.837 2.826-1.82 4.562-1.816 1.01.004 1.964.347 2.826 1.034l1.239.985.002-.12 5.976 4.484c1.487 1.893 2.03 4.097 2.029 8.598.028.704.026 1.271.022 1.859 0 0 .008 13.708 0 14.45l-.177.625.729.21c4.244 1.206 9.047 2.309 12.241 2.812l.872.14-.025-23.17c.002-.027.153.16-.053-.488l-.212-.258-2.814-1.332.053-.815s.326-.98.735-1.244c1.059-.815 3.106-2.118 5.446-2.114 1.116.002 2.173.3 3.139.889 2.087 1.103 3.694 2.788 4.816 5.015l.074.154.13.105c.994.794 1.773 1.475 2.443 2.168 1.786 1.813 2.45 3.813 2.454 7.389l.007 1.385c.016.38.03.75.033 1.135v8.721c.023 4.063.048 8.312.08 12.617h-.008l.017.42.016.275 1.484.242.122-.44.762-.903-.399-.107c3.332-8.318 10.411-13.63 18.233-13.615.947.003 1.842.059 2.706.16.07.011 6.494.744 9.56 2.38l.006-.01c2.106.843 4.219 2.261 5.39 3.301.05.038.707.613.743 1.624l-.004 6.627.008.428.019 26.12.013-.002c.008 1.114.012 3.114.012 3.114.02.187.326 2.198 3 2.55-1.539.875-3.26 1.991-5.021 1.984-3.336-.01-5.494-1.36-6.75-2.5l-.547-.494-.512.534c-1.316 1.368-2.797 2.372-4.402 2.99l-.6.223a12.39 12.39 0 01-3.78.573z"/><path d="M271.026 81.27c-1.032 2.318-3.25 3.606-7.76 3.272-2.472-.19-4.683-.678-7.118-2.7-.664-.586-1.428-1.4-2.315-2.825l-.408-.667c-.02-4.588-.012-8.855-.006-13.303a22.128 22.128 0 002.047 3.69 11.88 11.88 0 001.178 2.174c1.887 2.721 4.028 4.23 7.663 5.988.872.45 1.842.888 2.96 1.369l.475.213c1.502.653 2.673 1.277 3.568 1.933zm-70.797-21.743c-1.992.322-4.091.658-6.167 1.017.69-7.339 2.54-10.371 5.165-10.877l.787-.046.06.004c.627 2.248.913 5.269.842 8.954-.015.627-.26.883-.687.948m83.45 15.481c-.979-1.858-2.34-3.933-3.845-5.803a3.42 3.42 0 00-.809-.965 25.31 25.31 0 00-2.125-2.177c-3.376-3.162-7.286-4.586-10.568-6.13l-.937-.528.025-.13.22-1.038.272-.735.353-.643c.496-.664 1.41-1.73 2.559-2.328 1.212-.654 2.385-.872 3.761-.717 2.305.24 4.652.746 6.303 4.287.866 1.842.794 2.313.794 2.313.078.456.551.409.725.409 1.448-.12 2.202-.052 2.421-2.582l.05-.369c.03-.48-.065-2.973-.126-3.534.011-.732-.19-1.578-.733-2.509-1.45-2.528-2.19-3.12-2.694-3.694l-.092-.09c-3.127-3.053-7.791-4.862-13.304-4.425-1.33.097-2.599.342-3.828.681l.414-.128c3.284-2.978 4.88-5.795 4.836-8.339-.035-2.163-1.096-4.33-2.71-6.245-.187-.223-.244-.89-.298-1.277-.068-.378-.139-.467-.248-.748-.358-.921-1.022-1.702-1.74-2.358-.834-.773-1.874-1.288-2.971-1.573-.252-.087-.88-.181-1.56-.185-.959 0-2.466.178-3.83 1.09a7.267 7.267 0 00-1.91-2.31c-1.153-.885-2.537-1.339-4.123-1.344-.439 0-.893.036-1.374.108-2.461.361-4.438 1.886-5.593 4.164.628.038 1.283.113 1.92.164-.454.695-.834 1.456-1.047 2.34-.869 3.612.652 6.726 4.846 10.499 1.29 1.152 4.273 3.12 6.067 6.115 0 0 1.812 1.279 3.406 3.193l.097-.07c-1.301 1.171-2.305 2.65-3.007 4.405-.275-2.793-1.168-5.142-2.727-6.858-1.17-1.278-4.385-3.723-7.246-5.152l-.314-.16-.107-.038-.28-.111-.152-.053-.148-.048-.27-.06c-2.17-.497-4.346.417-5.678 1.432l-.32.568.386.605c.953.41.86 1.867.86 1.867l.026 9.571c.006 5.393.007 11.617.03 15.972.029 5.559-2.202 7.953-5.562 7.957-.267-1.076-.387-2.326-.39-3.772-.005-5.717-.01-13.474-.005-19.197.017-.92-.012-1.782-.101-2.59-.134-3.743-1.258-6.442-3.189-8.1-1.202-1.032-4.068-3.274-6.585-4.42l.238.152-.996-.493-.208-.038-.16-.048-.107-.013c-2.435-.548-4.606.366-6.016 1.437l-.317.572.38.603c.954.409.85 1.857.85 1.857l.008 8.942c-.649-1.403-1.538-2.746-2.677-4.055-2.221-2.515-5.257-4.912-8.451-6.421l.288.196c-2.653-1.623-5.9-2.362-9.648-1.81-4.777.713-8.393 3.213-11.135 6.695-2.171 2.76-3.84 5.857-4.898 9.67-.078-5.454-.153-10.57-.214-14.255-.063-3.807-2.71-7.059-2.71-7.059s-1.122-1.583-2.175-2.284c-.425-.633-.94-1.23-1.542-1.801-1.429-1.353-3.31-2.042-5.6-2.048-.29-.001-.59.01-1.004.042a9.893 9.893 0 00-1.727.395l-.374.12c-1.109.407-2.204 1.065-3.223 1.905a2.46 2.46 0 00-.988 2.011c.022.924.553 1.746 1.623 2.24.082.025.342.1.373.51.538-.154 1.099-.29 1.637-.445l.063.374.026 16.56c-1.259-1.082-3.48-2.948-4.253-3.399l.08.088a1.123 1.123 0 00-.973-.236l-1.061.25c-.38-3.922-1.647-6.595-4.103-8.479-.795-.605-1.393-1.167-2.307-1.603a10.763 10.763 0 00-1.727-1.652c-1.27-1.053-2.704-1.593-4.253-1.595-2.364-.006-4.44 1.261-5.67 2.255a2.443 2.443 0 00-1.072 2.011c-.002.93.512 1.764 1.216 2.067l.044.155c.536-.15 1.087-.311 1.624-.458.139.502.124.979.124.979l.003 9.705-.49.689c-1.212.284-1.628.349-2.744.65-.815.19-1.563 1.021-1.561 2.325 0 1.667.002 1.167.002 2.163-1.168-1.022-2.393-2.07-2.649-2.188l-.292-.136.182.126c-.233-.183-.563-.263-.987-.34-1.504-.28-2.523-.448-4.39-.118-3.102.552-4.704 2.008-6.905 5.053-.475.643-.85 1.313-1.353 2.523-1.591-2.254-3.568-3.738-5.67-4.192l.354.13-.567-.2c-2.536-.81-5.879.829-7.432 2.037l-.357.643.433.677c1.52.252 3.275 2.748 3.275 2.748l.017 36.898c-.006.9.072 1.318.652 1.597 1.155 1.225 4.06 3.622 4.735 4.21.313.555.881.806 1.591.743 3.174-.3 4.796-.51 7.801-.961 1.013-.15 1.645-1.08 1.643-2.206l-.002-.178c-.006-6.974-.006-18.126-.015-25.57.019-3.362.124-5.805 1.269-7.387.504-.692 1.05-1.213 1.68-1.612 1.713-.937 4.016-.822 7.252-.448 1.109.137 1.796-.756 1.895-1.783.06-.696.116-1.524.162-2.37.115-1.27.218-2.541.338-3.824.784.61 1.582 1.216 2.145 1.64 0 6.447.007 20.89.007 21.66.006 4.177 1.002 7.043 2.691 8.894l.3.32c.473.512 4.406 3.561 6.106 4.769 1.36.947 3.294 1.513 5.633 1.488 2.754-.03 5.86-.92 7.982-2.192l.733-.565c.893-.683 1.473-1.465 1.834-2.44.637-1.955.007-2.977-.71-3.872l-3.342-3.546-.578-.269-.605.395-.42.424c-.606.553-1.637 1.07-2.167 1.276-.39.153-.815.233-1.242.27-.004-6.86-.014-22.096-.02-28.555 0-.428.216-.662.483-.72 2.231-.551 3.155-.751 5.399-1.286l.234-.074.002.076.037 23.5c.104 3.4.929 5.259 2.67 6.894l.497.378-.443-.32.145.162c.894.813 3.273 2.742 5.29 4.18 1.48.913 2.958 1.64 5.118 1.4.502-.012 1.282-.23 1.765-.377 1.08-.402 2.034-.956 2.748-1.553l.338-.717-.413-.668c-1.009-.441-.933-2.057-.933-2.057l-.631-11.083c-.014-1.069-.038-2.235-.054-3.486a19.8 19.8 0 001.658 3.4c2.134 3.675 5.595 6.194 9.177 8.768 3.278 2.353 7.929 3.342 12.678 2.27 6.64-1.505 9.505-4.895 11.173-8.658.496-1.124.43-2.128.196-2.855l-.041-.181c-.615-1.663-1.287-2.855-2.25-4.265l.036.1c-.155-.264-.391-.442-.84-.453-.347-.016-.584.026-1.324 1.24-1.801 2.694-6.751 4.292-9.898 4.713a8.265 8.265 0 01-3.072-.147c-1.353-2.066-2.525-5.375-2.687-8.146-.03-.635.27-.883.939-1.002 5.156-.952 10.308-1.872 15.49-2.622 1.237-.177 2.468-.393 3.709-.557l.54-.025.753-.15c.142 4.04.912 7.314 2.256 9.83l-.113-.165.117.185.362.643-.152-.225.295.44.039.067.238.369.597.898.788.972.81.952c.408.43.862.86 1.312 1.288l.586.563a40.604 40.604 0 002.23 1.891c2.241 1.786 5.052 2.95 8.55 2.734 1.377-.084 2.728-.494 4.068-1.276-.126 1.254-.35 2.42-.801 3.48-.935 2.271-2.754 3.181-4.994 3.523-2.485.395-5.708.109-7.784-1.175-2.316-1.29-4.017-3.649-4.583-4.462-.254-.38-.556-.683-1.035-.65-.704.05-1.099.57-1.072 1.274l.025.267.131.584c.195 3.124 2.14 7.139 5.66 10.791 1.39 1.45 5.27 4.187 9.843 4.593.794.12 1.643.172 2.574.166 4.998-.032 9.514-1.906 12.743-4.99 3.58-3.435 5.593-8.377 5.572-13.92l-.002-.191c.363.59.796 1.233 1.208 1.847.319.681.656 1.235.884 1.56l.31.446c.369.482.806.939 1.256 1.381 2.12 2.336 4.95 3.841 8.066 4.586 1.567.433 3.187.662 4.778.62a18.12 18.12 0 002.578-.208c4.98-.563 9.507-2.91 11.898-7.81 2.114-4.353 1.395-9.656-.754-13.759"/><path d="M199.792 48.868l-.721.072c-3.254.624-5.091 4.292-5.776 11.543l-.092.988.98-.175a363.45 363.45 0 016.16-1.01c.485-.082 1.294-.404 1.33-1.68.07-3.756-.224-6.844-.87-9.174l-.158-.551zm52.858 16.189l.004 2.698c-.004 3.498-.01 6.948 0 10.6l.01.214.513.834c.994 1.61 1.835 2.45 2.461 3.007 2.551 2.118 4.872 2.685 7.564 2.884.475.036.945.057 1.376.059 3.673.005 6.003-1.222 7.133-3.773l.332-.986.115-.485-.403-.29c-.905-.668-2.08-1.311-3.712-2.023l-.305-.14a44.81 44.81 0 01-3.09-1.413c-3.835-1.859-5.691-3.31-7.386-5.75a10.69 10.69 0 01-1.093-2.026c-.872-1.296-1.537-2.496-2.061-3.712zm-136.524 43.059c-.461.002-.639-.21-.725-.37l-.797-.735c-1.103-.931-3.145-2.664-4.038-3.614l-.1-.101-.122-.065c-.164-.077-.234-.11-.232-.92l-.012-37.65-.381-.001c-.666-.863-1.92-2.269-3.212-2.658 1.345-1.122 3.565-2.166 5.448-2.162.446.002.864.06 1.238.183l.199.063.154.042c1.869.427 3.643 1.763 5.14 3.87l.791 1.126.525-1.264c.517-1.24.866-1.828 1.269-2.375 2.032-2.807 3.513-4.23 6.427-4.752a9.842 9.842 0 011.748-.164c.761.002 1.433.11 2.36.286l.681.178c.25.12.634.359 2.704 2.18l1.267 1.112-.007-3.836c.002-.945.492-1.48.979-1.593a30.592 30.592 0 011.679-.407l1.059-.238a1.52 1.52 0 001.082-1.391l-.002-9.742c-.004-.036.01-.582-.153-1.175l-1.685.51-.43-.71c-.434-.192-.745-.766-.745-1.369 0-.546.275-1.069.746-1.395 1.013-.807 2.975-2.118 5.24-2.108 1.363.002 2.637.475 3.767 1.406.591.458 1.122.956 1.633 1.567l.107.12.143.072c.619.296 1.082.666 1.622 1.088l.556.433c2.265 1.742 3.438 4.198 3.805 7.952l.084.864 1.906-.45.822-.678-.23.456-.249.298c.311.176 1.26.857 4.132 3.309l1.255 1.074-.027-18.198-.076-.523-1.733.471-.238-.773-.557-.34c-.66-.312-1.076-.862-1.092-1.54a1.704 1.704 0 01.691-1.39c.983-.817 2.017-1.432 3.028-1.802l.34-.112c.574-.176 1.042-.296 1.597-.361l.907-.036c2.085.002 3.791.618 5.072 1.835l.652.615.765.958c.352.305.686.437.985.807.416.525.813 1.06 1.22 1.597.047.069 2.505 3.141 2.572 6.639.053 3.398.208 14.25.208 14.25l1.488.193c.981-3.494 2.532-6.568 4.765-9.398 2.86-3.637 6.448-5.795 10.66-6.423a15.478 15.478 0 012.331-.173c2.48.003 4.767.635 6.797 1.883l.035-.044c2.862 1.406 5.75 3.618 7.959 6.124a16.266 16.266 0 012.557 3.87l1.454-.314-.01-8.941c.052-.682-.171-2.058-1.316-2.546.818-.433 2.297-1.343 4.211-1.336a5.48 5.48 0 011.286.15l.386.077.897.4c2.308 1.108 4.96 3.15 6.192 4.209 1.832 1.566 2.809 4.106 2.929 7.556.093.798.124 1.609.103 2.557V73.53c.002 1.537.14 2.828.422 3.947l.146.576.594.002c1.685-.002 3.068-.536 4.13-1.595 1.469-1.462 2.207-3.855 2.186-7.114-.02-3.635-.02-8.578-.027-13.251l-.015-3.473c-.01-1.654-.02-5.864-.017-8.816.046-.683-.174-2.07-1.311-2.565 1.261-.772 2.748-1.297 4.066-1.295l1.073.122.32.078.289.107.288.12c2.881 1.44 6.055 3.805 7.222 5.086 1.418 1.553 2.27 3.717 2.534 6.43l1.474.206c.65-1.654 1.593-3.045 2.8-4.133l-1.003-1.133.981.177a20.816 20.816 0 00-3.418-3.238c-1.473-2.391-3.656-4.149-5.116-5.318a36.18 36.18 0 01-1.01-.832c-4.07-3.666-5.407-6.494-4.617-9.765.172-.719-.19-.874.279-1.608l-1.117-1.035.495-.69c1.082-1.535 2.62-2.508 4.444-2.775a8.214 8.214 0 011.254-.09c1.417.002 2.64.394 3.65 1.184.687.53 1.257 1.22 1.702 2.06l.4.747.703-.472c1.19-.796 2.515-.962 3.408-.96.636-.002 1.181.096 1.313.144 1.082.282 1.996.757 2.702 1.408.77.712 1.28 1.393 1.538 2.072l.208.605c.113.855.195 1.317.468 1.643 1.63 1.933 2.505 3.921 2.537 5.767.04 2.33-1.465 4.91-4.467 7.66l-.076.08-.046.036.046-.027.265 1.44a18.175 18.175 0 013.672-.658 17.477 17.477 0 011.59-.067c4.367.012 8.313 1.525 11.126 4.275l.35.374c.488.523 1.146 1.223 2.3 3.244.44.742.653 1.46.646 2.133.053.603.146 3.067.12 3.492l-.038.294c-.159 1.826-.344 1.844-1.53 1.937l-.125.004c-.072-.41-.362-1.223-.85-2.273-1.806-3.88-4.516-4.47-6.912-4.723l-.876-.051c-1.193-.004-2.242.275-3.323.855-.97.505-1.913 1.354-2.803 2.54l-.456.797-.261.725a6.512 6.512 0 00-.277 1.248l-.002.435.35.45.26.146.722.397c.573.27 1.16.532 1.75.805 2.776 1.248 5.927 2.662 8.623 5.192a24.676 24.676 0 012.084 2.126l.721.849c1.5 1.872 2.836 3.89 3.828 5.772 2.275 4.334 2.555 9.353.75 13.09-2.61 5.346-7.59 6.973-11.306 7.386-.83.13-1.662.194-2.502.21l-.37-.002a16.02 16.02 0 01-4.198-.59c-3.141-.758-5.797-2.263-7.694-4.364-.46-.452-.876-.884-1.235-1.344l-.238-.349a11.161 11.161 0 01-.86-1.517c-.468-.712-.888-1.34-1.253-1.923l-1.408-2.244v2.64c.021 5.494-1.876 10.244-5.333 13.57-3.198 3.053-7.534 4.746-12.228 4.778-1.006 0-1.765-.055-2.446-.158-4.69-.42-8.381-3.292-9.414-4.364-3.219-3.35-5.255-7.206-5.448-10.316v-.065l-.139-.595c-.038-.65.248-.666.364-.674l.338.32c1.544 2.182 3.172 3.765 4.845 4.695 2.008 1.244 4.603 1.437 5.965 1.439.8.003 1.569-.054 2.305-.172 2.863-.44 4.634-1.704 5.584-3.975.433-1.019.7-2.194.855-3.7l.147-1.473-1.292.752c-1.216.706-2.445 1.097-3.738 1.18l-.798.024c-2.633-.006-5.06-.886-7.219-2.6a42.162 42.162 0 01-2.19-1.854l-.592-.567a39.408 39.408 0 01-1.273-1.248l-.442-.515-.52-.62-.582-.72-.566-.864-.426-.656-.32-.573-1.437.55 1.437-.575c-1.313-2.427-2.035-5.629-2.168-9.495l-.029-.885-1.666.31-.446.018c-.746.105-1.473.216-2.195.33l-1.55.233c-5.338.767-10.607 1.711-15.507 2.626-1.08.183-1.613.784-1.555 1.782.156 2.778 1.286 6.2 2.805 8.512l.162.247.294.076a8.931 8.931 0 003.36.156c2.677-.353 8.305-1.877 10.425-5.032.48-.79.65-.914.675-.935l1.529-.608-1.336.652c.845 1.233 1.536 2.408 2.166 4.101.189.67.296 1.492-.138 2.477-1.34 3.01-3.753 6.67-10.653 8.226a16.364 16.364 0 01-3.708.416c-3.097-.004-6.068-.916-8.358-2.559-3.374-2.429-6.867-4.934-8.959-8.528a19.499 19.499 0 01-1.607-3.293l-1.463.267.097 4.238.584 10.367c-.011.142-.057 2.073 1.387 2.708-.773.676-1.673 1.181-2.64 1.542-.697.202-1.222.324-1.52.33l-.8.048c-1.446-.002-2.562-.51-3.894-1.336-1.887-1.347-4.036-3.087-4.99-3.925l.061-.055-.437-.327c-1.68-1.576-2.337-3.303-2.435-6.371l-.038-24.487-.971.22-2.238.548c-1.044.236-1.941.448-3.367.8-.63.138-1.059.71-1.059 1.45l.025 29.388.832-.086a5.425 5.425 0 001.44-.313c.596-.235 1.722-.805 2.413-1.422l.445-.465.225-.195.135.187-.236-.088 3.297 3.508c.612.767 1.069 1.517.55 3.125-.308.819-.808 1.489-1.577 2.077l-.692.53c-2.033 1.229-5.017 2.048-7.58 2.076-2.179-.006-3.91-.473-5.175-1.355-1.733-1.223-5.591-4.23-5.98-4.663l-.285-.283c-1.665-1.843-2.505-4.663-2.507-8.417l-.011-22.03-.298-.226c-.578-.435-1.364-1.038-2.141-1.633l-1.095-.853-.468 5.192c-.044.874-.097 1.68-.158 2.376-.042.403-.275 1.105-.916 1.103-1.384-.156-2.7-.282-3.893-.284-1.664-.004-2.922.257-3.946.82a6.704 6.704 0 00-1.935 1.828c-1.275 1.764-1.387 4.359-1.407 7.824l.016 25.574c0 .828-.31 1.538-.994 1.633-3.029.458-4.657.67-7.761.964z"/></g><path d="M252.726 44.536l.16-.105c.409-.282 10.042-6.835 10.337-12.43.006-.06.72-5.631-4.32-6.942-.042-.012-3.711-.798-5.52 2.314-.153-.835-.678-2.744-2.227-3.955-1.138-.87-2.59-1.187-4.33-.935-2.534.372-4.45 2.299-5.139 5.146-.857 3.607.613 6.797 4.912 10.661.286.258.645.55 1.065.888 1.429 1.145 3.581 2.877 4.963 5.198zM58.393 36.712a5.317 5.317 0 00-2.748-.77c-2.007-.006-3.852 1.087-5.035 1.991l-.436.773.53.828c.93.405.844 1.88.846 1.903l.016 10.627.003 3.786c0 2.599-.002 5.282.006 7.669-4.988-.817-13.218-2.937-16.891-4.366-.016-4.792-.012-10.911-.014-14.567l-.002-2.806c.09-6.01-1.255-9.58-4.5-11.935-1.032-.829-2.188-1.24-3.419-1.243-1.996-.004-3.847 1.08-5.038 1.99l-.429.771c0 .365.212.687.533.83.92.409.84 1.876.841 1.903l.004 10.63.019 12.68c.013 11.473.027 23.369.02 33.378.003.757.112 1.34.335 1.774.31.603.777 1.013 1.55 1.345 2.222.983 5.129 2.11 7.985 3.107l.523.084c.784.004 1.607-.58 1.607-1.65.006-6.635-.01-24.788-.021-27.94 4.583 1.688 11.892 3.352 16.899 4.21l.008 2.43c.007 6.032.03 20.158.015 26.09.002.535.12 1.054.347 1.463.317.614.867.969 1.828 1.183 2.27.492 5.67 1.19 9.001 1.643l.191.019c.907.004 1.615-.891 1.616-2.03 0-11.35-.01-24.66-.02-37.241L64.55 48.82c-.004-5.866-2.082-9.938-6.158-12.108m116.822 51.885c-1.349-.475-1.227-1.819-1.22-1.893l-.043-46.797c-.06-3.554-.925-5.803-2.986-7.76-1.153-1.093-2.643-1.625-4.548-1.629l-.812.025c-.514.067-.935.18-1.464.347l-.302.09c-.944.351-1.902.916-2.835 1.693l-.391.774.536.836c1.421.422 1.458 1.826 1.456 1.882l.076 47.547c.101 3.295.865 5.266 2.716 7.016 1.093 1.033 2.593 1.584 4.322 1.584l1.01-.055c.516-.021 1.026-.16 1.493-.302l.323-.105c1.171-.376 2.084-1.05 2.807-1.647l.389-.769zm-43.24-32.669c-.983-.177-1.689-.3-2.536-.3a10.014 10.014 0 00-1.91.184c-3.229.574-4.841 2.102-7.022 5.12-.523.705-1.223 2.163-1.68 3.29l-.217.322-.116-.227c-.728-2.699-2.458-4.49-5.02-5.185a4.924 4.924 0 00-1.52-.227c-2.473-.006-4.986 1.437-6.07 2.292l-.43.786c0 .355.233.857.659.857l.053-.01c1.184-.269 2.046-.128 2.533.414.572.637.461 1.628.461 1.66l.016 37.4c-.004.667.185 1.211.553 1.574.317.316.752.48 1.26.484l.238-.011c3.152-.286 4.725-.506 7.81-.96 1.063-.158 1.798-1.137 1.798-2.385a7830.38 7830.38 0 01-.006-15.575l-.004-9.118c-.003-3.854-.005-6.634 1.227-8.33 1.044-1.447 2.359-2.201 4.378-2.525 1.032-.172 1.935-.191 2.75-.191l.84.007.835.012c1.132-.004 1.948-.765 2.074-1.95.1-1.109.197-2.218.292-3.33.069-.805.14-1.626.216-2.433.118-1.263-.527-1.475-1.462-1.645M91.596 67.263l-.019.692c.008 6.91.013 21.159.02 28.059.003.336-.035.73-.28 1.13-1.116 1.824-2.929 2.873-4.963 2.87l-.246-.006c-1.433-.069-2.683-.678-3.706-1.798-2.385-2.625-3.476-8.035-3.081-15.239.54-10.05 3.917-17.145 8.6-18.09l.916-.082c.559.002 1.607.1 2.402.762.401.322.374.9.357 1.702m13.858 34.138c-2.307-.317-2.176-1.544-2.172-1.618l-.008-3.878c-.011-4.358-.013-11.566-.011-17.533l-.006-6.3v-.292l-.005-.588-.002-6.608c-.004-1.191-.38-1.485-.428-1.514-2.536-2.236-10.627-3.163-10.968-3.21a24.979 24.979 0 00-2.822-.161c-11.767-.021-21.086 11.09-21.216 25.303-.07 7.43 1.03 11.665 4.055 15.613 2.92 3.824 7.137 5.934 11.879 5.946l.019.002c3.648.003 6.432-1.556 8.76-4.927l.302-.353.252.297c1.437 2.626 4.251 3.559 6.253 3.561 3.028.011 4.98-1.14 6.333-2.145l.433-.761c0-.35-.227-.762-.648-.834m55.754-13.167l-.053-.002-.726.445-.406.42c-.603.542-1.616 1.055-2.116 1.246a5.135 5.135 0 01-1.8.301c-1.253-.002-2.402-.374-2.942-.72-1.023-.656-1.365-1.867-1.363-4.795l-.017-26.993.338-.554a111.1 111.1 0 012.734-.63c.81-.192 1.626-.373 2.75-.652 1.113-.269 1.796-1.229 1.794-2.502l-.002-3.016c0-.577-.183-1.084-.517-1.42a1.312 1.312 0 00-1.248-.342c-.895.206-1.658.39-2.412.573-.996.246-1.964.479-3.193.752l-.213-.136c-.008-5.585-1.332-9.09-4.305-11.35-.994-.82-2.097-1.235-3.282-1.235-1.922-.005-3.677 1.08-4.809 1.981l-.418.777.506.828c.889.404.809 1.885.81 1.906v9.7l-.356.532c-.426.105-.756.174-1.052.237-.541.116-.97.213-1.69.41-.846.193-1.695 1.048-1.693 2.498v2.853c.004 1.185.802 2.003 1.786 1.78.588-.141.972-.229 1.35-.315.392-.08.78-.17 1.389-.309l.179.05.092.265c.005 6.51.017 24.257.011 25.005.008 3.992.927 7.03 2.736 9.018 1.716 1.85 4.122 2.83 6.979 2.84l.17-.006c2.644-.03 5.657-.83 7.856-2.099 1.75-.97 3.717-3.005 4.013-5.822l.007-.322c-.01-.327-.032-1.195-.887-1.197m39.538-29.654c-.017.577-.229.731-.544.783-3.808.595-7.485 1.225-10.623 1.837l-.423-.547c-.126-6.96 1.62-14.396 5.797-15.314l.899-.103c.88.004 1.662.346 2.314 1.002 1.806 1.83 2.699 6.099 2.58 12.342m-6.075-18.649c-4.46.666-8.244 2.937-11.253 6.763-4.301 5.463-6.22 11.654-6.215 20.067 0 7.31 2.478 13.565 6.793 17.166 2.59 2.155 6.475 3.397 10.644 3.406a21.63 21.63 0 003.213-.234c5.687-.828 10.154-3.128 12.593-6.473.057-.084 1.412-1.954 1.553-4.06 0-1.043-.004-2.119-1.233-2.159h-.08c-.418-.002-.715.193-1.4 1.313l-.016.03c-1.801 2.663-6.822 4.222-9.764 4.618a8.954 8.954 0 01-1.168.077c-5.255-.01-8.92-4.906-9.346-12.482-.025-.498.154-.683.803-.832 1.985-.44 14.249-2.492 19.859-3.215 1.49-.2 2.303-1.096 2.404-2.656.514-7.32-.954-12.965-4.358-16.787-3.307-3.698-7.893-5.307-13.03-4.542m53.896 25.882c.006-4.868.004-9.912-.015-15.654-.021-4.263-1.39-7.608-3.96-9.674l-.708-.569a5.476 5.476 0 00-3.083-.931c-2.172-.006-3.916 1.13-4.56 1.616l-.39.716.49.767c.825.362.752 1.68.748 1.702l.033 12.298c.004 4.723.011 9.618.028 13.247.018 3.01-.631 5.193-1.923 6.473-.88.88-2.05 1.32-3.477 1.319l-.086-.006c-3.423-.046-5.226-2.899-5.232-8.26-.004-5.724-.008-13.473-.006-19.186.134-5.717-1.809-9.51-5.644-10.972a6.963 6.963 0 00-1.956-.288c-2.193-.006-3.878 1.034-4.681 1.648l-.393.716.488.767c.819.359.74 1.672.743 1.696l.003 9.583.006.17-.002 13.112c-.065 6.696 1.4 11.6 4.357 14.565 2.166 2.16 5.09 3.263 8.703 3.267 3.336.006 6.61-1.18 8.532-3.095l.421-.098.124.378.002 1.16c.012 3.168.023 5.914-.925 8.185-.811 1.963-2.313 3.02-4.858 3.41-.684.109-1.405.164-2.15.164-2.155-.006-4.165-.49-5.512-1.319-1.553-.868-3.072-2.343-4.53-4.4-.244-.364-.57-.735-1.107-.735l-.082.002c-.773.056-1.275.641-1.248 1.454l.033.292c1.068 7.404 6.005 10.797 8.459 11.55 1.998.728 3.784.858 5.751.94l.641.017c4.053.01 8.316-1.746 11.707-4.813 3.483-3.179 5.31-7.86 5.286-13.554a2267.2 2267.2 0 01-.027-17.66m20.437-16.487c.401 0 .807.022 1.225.06 2.19.237 4.782.87 7.39 3.798 1.882 2.095 2.287 3.276 2.296 3.286l.724.548.15-.018c.773-.06 1.434-.515 1.813-1.24.575-1.08.424-2.55-.427-4.02-1.206-2.111-1.948-2.9-2.435-3.418l-.286-.317-.098-.088c-3.34-3.267-8.195-4.894-13.445-4.473-6.59.508-11.36 3.771-13.086 8.942-1.601 4.735-1.107 9.648 1.309 13.138 2.42 3.502 5.274 5.019 11.184 7.63 2.543 1.13 4.013 2.083 4.911 3.219 1.134 1.435 1.36 3.196.63 4.822-1.103 2.477-3.475 3.461-7.583 3.165-2.517-.188-4.67-.715-7.01-2.654-.58-.515-1.36-1.296-2.281-2.78-.535-.893-.932-1.552-1.622-1.553l-.393.074c-.653.212-.779.788-.857 1.33-.056 2.443 1.584 5.087 1.918 5.603l.15.208.166.229c2.958 4.012 8.553 6.634 14.259 6.667h.091c6.334.015 10.894-2.756 13.194-7.998 1.944-4.476 1.538-10.426-.976-14.16-3.327-4.971-7.783-6.971-11.724-8.74-.61-.275-1.21-.542-1.782-.817-3.398-1.618-4.73-3.894-3.85-6.59.782-2.417 3.2-3.863 6.445-3.853" fill="#fff"/></svg>