<svg version="1.1" id="Layer_1" xmlns="http://www.w3.org/2000/svg" x="0" y="0" viewBox="0 0 16 16" xml:space="preserve"><style>.st0{fill-rule:evenodd;clip-rule:evenodd;fill:#65b24e}</style><g id="cdr_layer2"><path class="st0" d="M7.4 8.1c3 2.4 2.3 5.3.4 7.3-.8-.6-1.2-.9-1.8-1.7 1-.9 1.2-1.6 1.2-2.9-.3 1.1-1 1.9-1.6 2.4-.4-1-.8-1.9-1-2.9.8-1 1.4-1.4 1.3-2.8-.5 1.1-1 1.7-1.6 2-.1-1-.3-1.8-.3-2.9 1.4-.4 1.4-3.8 1.5-5-.3 1.1-.8 2.3-1.3 3.4C4 4.1 4 3.3 4 2.3c-.4 1-.7 1.8-.9 2.9-.4-.6-.4-.9-.7-1.7-.2.7-.1.8-.2 1.9 0 1 .5 1.2 1.2 1.3.1 1.3.2 1.8.3 2.8-.9-.3-1.4-.6-2-1.3.4 1.1 1 1.7 2.1 2.2.2 1.1.5 1.9 1 2.8-.8-.2-1.3-.5-2-.9.8 1.1 1.3 1.5 2.6 1.6.5.7 1.1 1.4 1.7 2C3.1 15.5 0 12.1 0 8 0 3.6 3.5.1 7.8 0 5 2.5 4.9 5.7 7.4 8.1z"/><path class="st0" d="M8.7 7.9c2.8 1.9 2.1 6-.2 8.1 4.2-.3 7.5-3.7 7.5-8C16 3.9 12.9.5 9 .1c.6.7 1.2 1.3 1.8 2 1.3.1 1.8.5 2.6 1.6-.7-.3-1.3-.6-2-.8.5 1 .8 1.7 1 2.8 1.1.5 1.7 1 2.1 2.1-.6-.7-1.1-1-2-1.3.2 1 .3 1.6.4 2.8.7.1 1.2.3 1.2 1.3-.1 1.1-.1 1.2-.2 1.8-.3-.7-.3-1-.7-1.6-.2 1.1-.4 1.9-.8 2.9 0-1-.1-1.9-.3-2.7-.5 1.1-1 2.3-1.2 3.3.1-1.2.1-4.6 1.4-5-.1-1-.2-1.9-.4-2.8-.6.3-1.1.9-1.6 2 0-1.4.5-1.8 1.3-2.8-.2-1-.6-2-1.1-2.9-.6.5-1.3 1.3-1.6 2.4 0-1.3.2-2 1.2-3-.6-.8-1-1.1-1.8-1.6-2.6 2.5-2 5.5.4 7.3z"/></g></svg>