<svg data-name="Layer 1" xmlns="http://www.w3.org/2000/svg" viewBox="0 0 85 50"><circle cx="24.97" cy="24.97" r="24.97" fill="#81b214"/><path d="M21.68 26.41a2.08 2.08 0 00.61.73 2.81 2.81 0 00.91.41 4.24 4.24 0 001.07.13 5.84 5.84 0 00.81-.06 2.72 2.72 0 00.81-.24 1.82 1.82 0 00.63-.5 1.24 1.24 0 00.25-.79 1.12 1.12 0 00-.34-.85 2.68 2.68 0 00-.86-.53 8.38 8.38 0 00-1.22-.38q-.69-.16-1.35-.33a10.85 10.85 0 01-1.4-.44 4.49 4.49 0 01-1.22-.67 3 3 0 01-1.2-2.53 3.39 3.39 0 01.42-1.71 3.86 3.86 0 011.1-1.21 5.06 5.06 0 011.54-.72 6.84 6.84 0 011.72-.23 8.1 8.1 0 011.93.23 4.69 4.69 0 011.64.72 3.69 3.69 0 011.14 1.28 3.94 3.94 0 01.42 1.89h-2.75a2.36 2.36 0 00-.25-.95 1.62 1.62 0 00-.54-.59 2.44 2.44 0 00-.78-.3 4.82 4.82 0 00-1-.09 3.08 3.08 0 00-.68.07 1.8 1.8 0 00-.62.25 1.52 1.52 0 00-.46.45 1.21 1.21 0 00-.18.68 1.13 1.13 0 00.15.61 1.19 1.19 0 00.56.43 7.18 7.18 0 001.17.39c.49.14 1.14.3 1.94.51a8.86 8.86 0 011 .26 4.52 4.52 0 011.26.6A3.66 3.66 0 0129 24a3.09 3.09 0 01.46 1.76 3.92 3.92 0 01-.34 1.64 3.5 3.5 0 01-1 1.29 5 5 0 01-1.67.86 8 8 0 01-2.3.3 8.31 8.31 0 01-2.06-.26 5.11 5.11 0 01-1.75-.81 4.06 4.06 0 01-1.21-1.42 4.23 4.23 0 01-.43-2h2.72a2.28 2.28 0 00.26 1.05zM34 16.77v12.79h-2.84V16.77zm6.41 0l3 8.8 2.84-8.8h4v12.79h-2.66v-9.07l-3.14 9.07h-2.2l-3.13-9v9h-2.68V16.77zm18.06 0a5.27 5.27 0 012.05.35 3.89 3.89 0 011.37.92 3.55 3.55 0 01.77 1.31 4.88 4.88 0 01.24 1.52 5 5 0 01-.24 1.52 3.55 3.55 0 01-.77 1.31 3.9 3.9 0 01-1.37.93 5.46 5.46 0 01-2.05.35h-2.95v4.58H52.7V16.77zm-.77 6a5.49 5.49 0 00.93-.07 2.12 2.12 0 00.79-.28 1.54 1.54 0 00.55-.58 2 2 0 00.21-1 2 2 0 00-.21-1 1.5 1.5 0 00-.55-.59 2.31 2.31 0 00-.79-.28 6.76 6.76 0 00-.93.03h-2.18v3.84zm9.77-6V27.2h6.24v2.36h-9V16.77zm17.39 0v2.36H78.1v2.74h6.2v2.19h-6.2v3.14H85v2.36h-9.71V16.77zM27.11 46.11a4.68 4.68 0 01-1.85.38 6.54 6.54 0 01-2.64-.49 5.6 5.6 0 01-2-1.4 6.26 6.26 0 01-1.24-2.11 7.68 7.68 0 01-.38-2.63 7.94 7.94 0 01.43-2.66 6.4 6.4 0 011.24-2.14 5.57 5.57 0 012-1.44 6.54 6.54 0 012.64-.52 6.15 6.15 0 011.91.3 5.66 5.66 0 011.67.87 4.8 4.8 0 011.82 3.35H28A2.72 2.72 0 0027 36a2.82 2.82 0 00-1.74-.54 3.22 3.22 0 00-1.61.37 3.08 3.08 0 00-1.08 1 4.69 4.69 0 00-.6 1.41 7.34 7.34 0 00-.19 1.63 6.82 6.82 0 00.22 1.56 4.36 4.36 0 00.6 1.37 3.18 3.18 0 001.08 1 3.33 3.33 0 001.61.37 2.75 2.75 0 003-2.76h-2.81v-2.1h5.37v6.92h-1.79l-.29-1.45a4.25 4.25 0 01-1.66 1.33zM40 33.41a4 4 0 011.55.28 3.53 3.53 0 011.18.76 3.42 3.42 0 01.76 1.12 3.63 3.63 0 01.26 1.37 3.78 3.78 0 01-.48 2 3 3 0 01-1.55 1.26 2.18 2.18 0 01.86.43 2.54 2.54 0 01.56.7 3.6 3.6 0 01.31.89 6.45 6.45 0 01.13 1v.72c0 .28 0 .55.06.84a5.06 5.06 0 00.15.81 1.81 1.81 0 00.29.66h-2.74a5 5 0 01-.29-1.45c0-.57-.09-1.1-.16-1.62a2.57 2.57 0 00-.61-1.47 2.09 2.09 0 00-1.52-.46h-2.82v5h-2.81V33.41zm-1 5.79a2.11 2.11 0 001.45-.43 1.8 1.8 0 00.48-1.4 1.71 1.71 0 00-.45-1.37 2.16 2.16 0 00-1.48-.4h-3.06v3.6zm16.64-5.79v2.37h-6.76v2.74h6.21v2.19h-6.21v3.13h6.9v2.37h-9.71v-12.8zm11.62 0v2.37H60.5v2.74h6.2v2.19h-6.2v3.13h6.9v2.37h-9.71v-12.8zm4.84 0L77.44 42v-8.59h2.64v12.8h-2.79L72 37.64v8.57h-2.7v-12.8z" fill="#206a5d"/></svg>