<svg xmlns="http://www.w3.org/2000/svg" viewBox="0 0 1517.28 508.66"><defs><style>.cls-1{fill:#65b24e;fill-rule:evenodd}</style></defs><g id="cdr_layer2"><path class="cls-1" d="M203.78 219.83C286.1 286 268 365.49 213.35 418.58c-21.55-14.64-32.26-22.4-48.34-44.8 26.65-24.81 33.66-44.92 33.23-80.61-8.24 31.05-26.89 51.83-44.81 65.41-12.24-26.42-22.24-51.62-28.57-80.32 21.8-27.49 37.24-38.54 36.78-77.15-13 29.63-27.73 46.23-43.19 54.43-4.76-24.36-7.55-47.19-9.67-75.72 37.22-11.1 38.71-103.89 41.33-135.94-8.26 28.48-21.34 60.7-35.3 90.72-4.38-23-6.36-45.39-6.58-74-11.3 27.13-19.1 49.44-24 78.76-10.34-15.58-9.35-23.56-17.84-43.9-4.77 17.63-4.28 21-7.07 49.9-.14 26 13.09 31.75 33.11 35.14 2.19 34.36 4.42 50.36 8.56 77-24.89-7.6-37.23-16.08-53.51-35.3 11.41 30.27 27.08 45.66 57.25 58.93 6.45 29.72 14.67 51.51 27.23 77.71-20.65-5.78-36.65-14.07-55.52-23.45 22.09 28.72 35.21 41.67 70.67 43.87 14.56 19.89 30.8 37.61 47.44 55.64C85.11 422.77 0 330 0 217.3 0 98.06 95.31 1.09 213.91-1.59c-76.8 67.98-79.91 156.37-10.13 221.42z"/><path class="cls-1" d="M237.13 215.11c75.19 52.33 57.89 164-5 220.74C346.93 429 437.89 333.78 437.89 217.3c0-111.78-83.76-204-191.89-217.3 16.88 17.78 33.18 35.09 48 54.76 35.48 1.7 48.79 14.46 71.28 42.86-19-9.11-35.12-17.17-55.85-22.65 12.94 26 21.46 47.68 28.34 77.31 30.35 12.85 46.24 28 58.08 58.11-16.56-19-29-27.29-54-34.54 4.52 26.59 7 42.56 9.66 76.89 20.06 3.1 33.37 8.71 33.6 34.66-2.38 29-1.84 32.3-6.36 50-8.78-20.21-7.9-28.21-18.47-43.63-4.52 29.38-12 51.8-22.92 79.08-.63-28.6-2.93-51-7.63-73.9-13.53 30.22-26.16 62.61-34 91.22 2.16-32.09 2.38-124.89 39.4-136.53-2.54-28.49-5.65-51.28-10.75-75.57-15.34 8.42-29.83 25.23-42.41 55-1-38.6 14.27-49.86 35.68-77.67-6.75-28.6-17.1-53.66-29.72-79.9-17.71 13.84-36.08 34.87-43.87 66-.93-35.68 5.79-55.89 32.08-81.08-16.46-22.24-27.29-29.82-49.21-44.26-70.93 67.89-53.75 149.94 10.2 198.95z"/><path d="M574.94 88.2q0 28.13-46.53 28.15a126 126 0 01-30.21-3.27l3.18-12a103.37 103.37 0 0028.82 4.42q30.74 0 30.73-14.62 0-7.37-8-12.62-5.33-3.51-21-9.38-16.49-6.15-23-11.32c-6.11-4.78-9.13-10.75-9.13-18 0-7.53 3.08-13.63 9.31-18.36q10.38-7.9 29.38-7.89 21.53 0 29.47 2.36l-2.19 12.08a113.65 113.65 0 00-29.19-3.64q-23.24 0-23.24 13.09c0 4.21 2.25 7.74 6.7 10.57q4.35 2.66 19.16 8.08 16.89 6.15 24.41 11.71Q574.94 76 574.94 88.2zm43.11 25.63H600.9q1.33-24.66 1.35-52 0-26.92-1.35-47h17.15q-1.24 20.81-1.26 47 0 27.5 1.26 52zm160 0h-17c0-11.32-.93-27.65-2.81-49.08s-2.87-34.23-3-38.49h-.93q-9 24.74-22.89 53.68t-13.82 33.89h-12.22q0-5.33-12.93-34.51T676.1 40.26q-3.44-9.9-4.7-14h-.92q-.24 10.41-3.55 42.08t-3.3 45.49h-15.55q0-.78 6.14-41.89t6.14-57.18h23.79q0 8.37 14.47 41.86t14.44 40.54h.94q0-7.05 16.26-40.67t16.26-41.73h23.24q0 16.08 4.16 56.92t4.16 42.15zm111.4-74.48q0 17.34-15.65 25.95t-42 8.59c-2.22 0-4.16 0-5.8-.15q0 16.59 1.45 40.09h-17.37q1.33-21.61 1.36-52 0-26.17-1.36-47H823c1.39 0 5.34 0 11.88-.21s12.1-.23 16.69-.23Q869 14.32 879.2 21t10.25 18.35zm-15.09 4.42q0-19.56-31.75-19.56a148.45 148.45 0 00-17.44 1.14q.65 12.39.65 38.65 3.15.15 7.77.15 40.74 0 40.77-20.38zm109.73 58.87l-.56 11.19h-71.12q1.07-18.76 1.08-52 0-28.59-1.08-47h16.81q-1.11 15.39-1.08 47 0 26-1 41.71 27.11-.04 56.95-.9zm92.39-.29l-.56 11.48h-72.85q1.24-23.6 1.26-52 0-26.76-1.26-47h68.35l-.74 11.35q-24.86-.9-52.71-.91.56 11.81.56 31.86 24 0 42.83-.91V67.5q-20-.69-42.83-.7 0 19.56.8 36.7 30.04 0 57.15-1.15z" fill-rule="evenodd"/><path d="M702.7 391.35q-6.78-11.44-21.19-17.18a124.78 124.78 0 00-31.35-7.76q17.63-27 35.42-54.85T723 257.23q4.74-6.36 1.18-10.56T712.87 242q-7.8-.51-18.14 3.31t-18.81 13.49l-2.71 3.3-.68.51q-11.87 11.46-24.91 23t-25.77 21.12A271.36 271.36 0 01597.79 323q-11.37 6.74-19.66 8.65t-12.72-2Q561 325.69 562.7 314q1.37-9.17 7.12-20.1a140.47 140.47 0 0114.58-22 174 174 0 0120.17-21.25 183.79 183.79 0 0123.72-18.07 130 130 0 0125.26-12.6 67.8 67.8 0 0124.74-4.45q10.51.25 15.93 3.82a61.6 61.6 0 019.33 7.38 37.8 37.8 0 008.3 6.23c2.94 1.62 7.23 1.74 12.88.39a7.3 7.3 0 005.09-4.46 17.14 17.14 0 001.18-8.91 29.44 29.44 0 00-3.56-10.98 35.35 35.35 0 00-9.15-10.69 53.46 53.46 0 00-15.59-8.4q-9.5-3.43-22.71-3.69-11.19-.25-27.12 4.46a202.34 202.34 0 00-33.56 13.61 262.68 262.68 0 00-35.25 21.64 184.71 184.71 0 00-31.53 28.75 156.16 156.16 0 00-22.88 34.74 93.4 93.4 0 00-9.32 39.32 30.92 30.92 0 002.88 13.11 31.45 31.45 0 008.48 10.94 44.3 44.3 0 0013.72 7.64 53.9 53.9 0 0018.31 2.93q13.89 0 29.15-6.37a218.28 218.28 0 0030.51-15.77l-8.31 12.46q-4.23 6.38-9 12.73a387.14 387.14 0 00-60.85 8.53 315.23 315.23 0 00-48.13 14.88 200.87 200.87 0 00-36.44 19 167.62 167.62 0 00-25.42 20.62 99.65 99.65 0 00-15.6 19.72q-5.41 9.42-6.44 16.29-2.37 16.29 5.26 26.6t22.2 14.25q14.58 3.94 34.41 1.4t42-12.09a233.51 233.51 0 0045.08-26.22 241.46 241.46 0 0043.22-41.1q6.78-8.14 13.39-17.05t13.39-18.32a173.4 173.4 0 0131.7 5.09q14.4 3.81 23.89 10.18 6.11 4.07 10.34 3.94a7.52 7.52 0 006.27-2.92c1.36-1.87 1.92-4.42 1.7-7.64a24.19 24.19 0 00-3.34-10.22zm-120.34 7.89a409.42 409.42 0 01-28.3 33 256.51 256.51 0 01-29.83 26.85 133.65 133.65 0 01-30.51 17.69 68 68 0 01-30.34 5.22q-9.5-.51-12.88-5.21t3.05-15.91a92.25 92.25 0 0122.88-26.6 156.55 156.55 0 0132.21-19.85A215.61 215.61 0 01546.43 401a301.83 301.83 0 0140-7.38z"/><path d="M1517.26 277.34q-.35-5.35-3-8a8.94 8.94 0 00-7.12-2.42q-4.41.25-8.48 4.58a157 157 0 01-16.27 14.89q-10.17 8.26-21.69 16.67t-23.22 16.16q-11.7 7.76-20.51 12.85a46.29 46.29 0 01-7.29 3.69c-2.37.94-4.18 1.19-5.42.77s-1.7-1.66-1.36-3.69 1.87-5.26 4.58-9.67q18.3-29.28 35.59-57.27t37.29-55a31.8 31.8 0 003.9-7.38 10.55 10.55 0 00.17-7.63q-1.37-3.57-6.11-6.37t-14.57-3.31a96.69 96.69 0 00-33.9 4.08 168.09 168.09 0 00-33 14 240.9 240.9 0 00-31 20.49q-14.91 11.58-27.79 23.54 8.47-10.68 19-22.65t23.39-25.7q6.11-6.36 1.7-10.06t-13.73-4.07a64.92 64.92 0 00-20.68 2.93 43.55 43.55 0 00-19.15 11.2q-4.76 4.83-12.38 14.12t-16.1 21q-8.48 11.7-17 24.94c-1.87 2.92-3.67 5.83-5.43 8.72q-7.1 5.5-16.77 12.66-11.35 8.4-25.25 17.81a312.14 312.14 0 01-29.32 17.56 224.87 224.87 0 01-31.19 13.62 104.17 104.17 0 01-30.68 6q-13.22.51-18.3-4.46t-4.17-13.38q1-8.38 7.12-19.47a145 145 0 0115.76-22.65 275.42 275.42 0 0121.7-23 237.61 237.61 0 0124.74-20.61 193.33 193.33 0 0124.92-15.4q12.2-6.24 22.37-7.51 7.45-.76 9.66 1.28c1.47 1.35 1.64 3.35.51 6a35 35 0 01-6.27 9q-4.57 5.08-10 10.43-1 1-5.43 4.46t-11.35 8.53q-6.95 5.09-15.76 10.94t-18.82 11.2q-10 5.34-20.51 9.79a121.36 121.36 0 01-20.67 6.75 5 5 0 00-3.9 3.69q-.86 2.92 1.52 5.85c1.59 1.95 4.35 3.48 8.31 4.58s9.43.89 16.44-.63a122.59 122.59 0 0025.42-8.53 270.78 270.78 0 0025.76-13.36q12.56-7.38 23.22-15.14t18.14-13.62q13.56-10.94 20.51-22t9.32-16.93a23.43 23.43 0 001-7.76 17.6 17.6 0 00-3-9.67 25.87 25.87 0 00-9.5-8.27q-6.43-3.57-18-3.56a147.89 147.89 0 00-46.27 7.25 202.92 202.92 0 00-41.7 19 216.61 216.61 0 00-35.59 26.59 258.39 258.39 0 00-28 30 202.84 202.84 0 00-6.22 8.38q-5.54 4.22-12.34 9.25-11.36 8.4-25.26 17.82a310.86 310.86 0 01-29.32 17.56 223.09 223.09 0 01-31.19 13.61 104.13 104.13 0 01-30.67 6q-13.23.5-18.31-4.46t-4.06-13.36q1-8.4 7.11-19.47a145.07 145.07 0 0115.77-22.65 275.35 275.35 0 0121.69-23 234.21 234.21 0 0124.75-20.61 191.47 191.47 0 0124.91-15.4q12.21-6.24 22.37-7.51 7.45-.76 9.66 1.27t.51 6a35.16 35.16 0 01-6.27 9q-4.58 5.09-10 10.43c-.68.68-2.48 2.16-5.42 4.46s-6.73 5.13-11.36 8.52-9.88 7-15.76 10.95-12.15 7.63-18.81 11.19-13.43 6.77-20.43 9.74a120.8 120.8 0 01-20.68 6.74 5.08 5.08 0 00-3.9 3.7 6.25 6.25 0 001.53 5.85q2.37 2.93 8.3 4.58t16.44-.64a122.21 122.21 0 0025.43-8.52 272 272 0 0025.76-13.36q12.54-7.38 23.22-15.15t18.13-13.61q13.56-10.95 20.51-22t9.32-16.92a23.47 23.47 0 001-7.76 17.6 17.6 0 00-3-9.67 25.83 25.83 0 00-9.49-8.27q-6.45-3.57-18-3.57a147.94 147.94 0 00-46.27 7.26 202.6 202.6 0 00-41.69 19A215.76 215.76 0 00956 237.7a257.65 257.65 0 00-28 30c-.59.76-1.15 1.51-1.73 2.26a190 190 0 01-17.84 16.38q-10.17 8.26-21.7 16.67t-23.19 16.19Q851.86 327 843 332.05a45.78 45.78 0 01-7.28 3.69c-2.38.94-4.18 1.19-5.43.77s-1.69-1.66-1.35-3.69 1.86-5.26 4.57-9.67a133.57 133.57 0 0112.54-19.86q8.14-10.94 17.8-22.26t19.66-22.27q10-10.95 18.31-19.47t13.73-14q5.42-5.47 5.76-6c.45-.51.28-1.7-.51-3.56a20.12 20.12 0 00-3.9-5.73 22.39 22.39 0 00-6.61-4.84 15 15 0 00-9-1.14 103.55 103.55 0 01-13.56 1.53l-16.61 1q-9.49.51-20.34 1a130.06 130.06 0 0111.19-13q5.76-5.85 13.89-13a198.51 198.51 0 0119-14.5q3-2 .85-5.86a23.71 23.71 0 00-7.12-7.25 48.65 48.65 0 00-11.19-5.73 22 22 0 00-11.65-1.21 64.91 64.91 0 00-20.85 8.53A96.93 96.93 0 00825.58 171a68.89 68.89 0 00-13.39 19.22q-4.76 10.31-3.05 20-8.14 7.38-18.82 18.07T768.46 251q-11.19 12.09-21.87 24.94t-19.15 24.69a176 176 0 00-13.56 21.76q-5.07 9.93-4.74 16.54.35 9.16 3.56 14.64c2.14 3.65 4.69 6.11 7.62 7.38a11 11 0 008.65.25 13.8 13.8 0 006.95-6.49 423.17 423.17 0 0123.73-40.34q12.2-18.19 24.23-33.08t23.56-27Q819 242.21 828.8 232a39.91 39.91 0 008.3 1.66 49.1 49.1 0 007.8.12q3.55-.24 6.27-.5c1.81-.17 3.28-.26 4.41-.26q-19 19.35-34.24 37.41-6.78 7.64-13.05 16t-11.7 16.41a118.76 118.76 0 00-9 15.53 52.62 52.62 0 00-4.59 13.68q-2.37 14 4.07 20.87t19.66 9.42a66.44 66.44 0 0028-2 147.94 147.94 0 0029.15-11.58 232.91 232.91 0 0027.63-16.92c2.57-1.83 7.63-5.34 10.3-7.2a41.18 41.18 0 002.19 12.83 35.29 35.29 0 009.83 14.88q7.13 6.63 19.49 10.44t31.36 2.54a156.06 156.06 0 0040-8 270.53 270.53 0 0038-16 345.52 345.52 0 0035-20.93 39.69 39.69 0 002.08 15.14 35.23 35.23 0 009.83 14.89q7.13 6.62 19.49 10.43t31.36 2.55a155.75 155.75 0 0040-8 272.19 272.19 0 0038-16 316.36 316.36 0 0033.39-19.85l6.7-4.67c-1.68 1.18-3.38 2.37-5.14 3.58a47.81 47.81 0 00-2.07 11.39q-.67 13 3.22 19.6a29 29 0 009.66 10.18q8.14 4.83 14.92.51t8.47-16.55a9.15 9.15 0 01.17-1.65 10.44 10.44 0 00.17-1.91q4.07-9.68 12.88-20.61a236.23 236.23 0 0120.34-22q11.52-11.07 24.75-21.88t25.93-20.11q12.7-9.28 24.06-16.54a223.21 223.21 0 0119.49-11.33l4.07-2.29a39 39 0 015.09-2.42 7 7 0 013.56-.63c.79.17.62 1.1-.51 2.8q-2 3-8.82 11.32T1403 256.72q-8.8 12.21-18.64 28a222.7 222.7 0 00-17.29 34.1q-6.78 16.8-2.54 28.63t22.2 14.89a59.88 59.88 0 0027.12-1.78 141 141 0 0028-11.46 189.76 189.76 0 0026.11-16.92q12.36-9.54 22.2-18.45t15.93-15.65a110.09 110.09 0 007.46-8.78q4.05-6.63 3.71-11.96z"/></g></svg>