<?xml version="1.0" encoding="utf-8"?>
<!-- Generator: Adobe Illustrator 23.0.2, SVG Export Plug-In . SVG Version: 6.00 Build 0)  -->
<svg version="1.1" id="Layer_1" xmlns="http://www.w3.org/2000/svg" xmlns:xlink="http://www.w3.org/1999/xlink" x="0px" y="0px"
	 viewBox="0 0 16 16" style="enable-background:new 0 0 16 16;" xml:space="preserve">
<style type="text/css">
	.st0{fill-rule:evenodd;clip-rule:evenodd;fill:#65B24E;}
</style>
<title>Artboard 2</title>
<g id="cdr_layer2">
	<path class="st0" d="M7.4,8.1c3,2.4,2.3,5.3,0.4,7.3C7,14.8,6.6,14.5,6,13.7c1-0.9,1.2-1.6,1.2-2.9c-0.3,1.1-1,1.9-1.6,2.4
		c-0.4-1-0.8-1.9-1-2.9c0.8-1,1.4-1.4,1.3-2.8c-0.5,1.1-1,1.7-1.6,2C4.2,8.5,4,7.7,4,6.6c1.4-0.4,1.4-3.8,1.5-5
		C5.2,2.7,4.7,3.9,4.2,5C4,4.1,4,3.3,4,2.3c-0.4,1-0.7,1.8-0.9,2.9C2.7,4.6,2.7,4.3,2.4,3.5C2.2,4.2,2.3,4.3,2.2,5.4
		c0,1,0.5,1.2,1.2,1.3c0.1,1.3,0.2,1.8,0.3,2.8c-0.9-0.3-1.4-0.6-2-1.3c0.4,1.1,1,1.7,2.1,2.2c0.2,1.1,0.5,1.9,1,2.8
		c-0.8-0.2-1.3-0.5-2-0.9c0.8,1.1,1.3,1.5,2.6,1.6c0.5,0.7,1.1,1.4,1.7,2C3.1,15.5,0,12.1,0,8c0-4.4,3.5-7.9,7.8-8
		C5,2.5,4.9,5.7,7.4,8.1z"/>
	<path class="st0" d="M8.7,7.9c2.8,1.9,2.1,6-0.2,8.1c4.2-0.3,7.5-3.7,7.5-8c0-4.1-3.1-7.5-7-7.9c0.6,0.7,1.2,1.3,1.8,2
		c1.3,0.1,1.8,0.5,2.6,1.6c-0.7-0.3-1.3-0.6-2-0.8c0.5,1,0.8,1.7,1,2.8c1.1,0.5,1.7,1,2.1,2.1c-0.6-0.7-1.1-1-2-1.3
		c0.2,1,0.3,1.6,0.4,2.8c0.7,0.1,1.2,0.3,1.2,1.3c-0.1,1.1-0.1,1.2-0.2,1.8c-0.3-0.7-0.3-1-0.7-1.6c-0.2,1.1-0.4,1.9-0.8,2.9
		c0-1-0.1-1.9-0.3-2.7c-0.5,1.1-1,2.3-1.2,3.3c0.1-1.2,0.1-4.6,1.4-5c-0.1-1-0.2-1.9-0.4-2.8c-0.6,0.3-1.1,0.9-1.6,2
		c0-1.4,0.5-1.8,1.3-2.8c-0.2-1-0.6-2-1.1-2.9C9.9,3.3,9.2,4.1,8.9,5.2c0-1.3,0.2-2,1.2-3c-0.6-0.8-1-1.1-1.8-1.6
		C5.7,3.1,6.3,6.1,8.7,7.9z"/>
</g>
</svg>
