<svg id="Layer_1" data-name="Layer 1" xmlns="http://www.w3.org/2000/svg" viewBox="0 0 85 50"><defs><style>.cls-1{fill:#81b214;}.cls-2{fill:#206a5d;}</style></defs><title>Artboard 1</title><circle class="cls-1" cx="24.97" cy="24.97" r="24.97"/><path class="cls-2" d="M21.68,26.41a2.08,2.08,0,0,0,.61.73,2.81,2.81,0,0,0,.91.41,4.24,4.24,0,0,0,1.07.13,5.84,5.84,0,0,0,.81-.06,2.72,2.72,0,0,0,.81-.24,1.82,1.82,0,0,0,.63-.5,1.24,1.24,0,0,0,.25-.79,1.12,1.12,0,0,0-.34-.85,2.68,2.68,0,0,0-.86-.53,8.38,8.38,0,0,0-1.22-.38Q23.66,24.17,23,24a10.85,10.85,0,0,1-1.4-.44,4.49,4.49,0,0,1-1.22-.67,3,3,0,0,1-1.2-2.53,3.39,3.39,0,0,1,.42-1.71,3.86,3.86,0,0,1,1.1-1.21,5.06,5.06,0,0,1,1.54-.72,6.84,6.84,0,0,1,1.72-.23,8.1,8.1,0,0,1,1.93.23,4.69,4.69,0,0,1,1.64.72,3.69,3.69,0,0,1,1.14,1.28,3.94,3.94,0,0,1,.42,1.89H26.34a2.36,2.36,0,0,0-.25-.95,1.62,1.62,0,0,0-.54-.59,2.44,2.44,0,0,0-.78-.3,4.82,4.82,0,0,0-1-.09,3.08,3.08,0,0,0-.68.07,1.8,1.8,0,0,0-.62.25,1.52,1.52,0,0,0-.46.45,1.21,1.21,0,0,0-.18.68,1.13,1.13,0,0,0,.15.61,1.19,1.19,0,0,0,.56.43,7.18,7.18,0,0,0,1.17.39c.49.14,1.14.3,1.94.51a8.86,8.86,0,0,1,1,.26,4.52,4.52,0,0,1,1.26.6A3.66,3.66,0,0,1,29,24a3.09,3.09,0,0,1,.46,1.76,3.92,3.92,0,0,1-.34,1.64,3.5,3.5,0,0,1-1,1.29,5,5,0,0,1-1.67.86,8,8,0,0,1-2.3.3,8.31,8.31,0,0,1-2.06-.26,5.11,5.11,0,0,1-1.75-.81,4.06,4.06,0,0,1-1.21-1.42,4.23,4.23,0,0,1-.43-2h2.72A2.28,2.28,0,0,0,21.68,26.41Z"/><path class="cls-2" d="M34,16.77V29.56H31.16V16.77Z"/><path class="cls-2" d="M40.41,16.77l3,8.8h0l2.84-8.8h4V29.56H47.59V20.49h0l-3.14,9.07H42.25l-3.13-9h0v9H36.44V16.77Z"/><path class="cls-2" d="M58.47,16.77a5.27,5.27,0,0,1,2.05.35,3.89,3.89,0,0,1,1.37.92,3.55,3.55,0,0,1,.77,1.31,4.88,4.88,0,0,1,.24,1.52,5,5,0,0,1-.24,1.52,3.55,3.55,0,0,1-.77,1.31,3.9,3.9,0,0,1-1.37.93,5.46,5.46,0,0,1-2.05.35H55.52v4.58H52.7V16.77Zm-.77,6a5.49,5.49,0,0,0,.93-.07,2.12,2.12,0,0,0,.79-.28,1.54,1.54,0,0,0,.55-.58,2,2,0,0,0,.21-1,2,2,0,0,0-.21-1,1.5,1.5,0,0,0-.55-.59,2.31,2.31,0,0,0-.79-.28A6.76,6.76,0,0,0,57.7,19H55.52v3.84Z"/><path class="cls-2" d="M67.47,16.77V27.2h6.24v2.36h-9V16.77Z"/><path class="cls-2" d="M84.86,16.77v2.36H78.1v2.74h6.2v2.19H78.1V27.2H85v2.36H75.29V16.77Z"/><path class="cls-2" d="M27.11,46.11a4.68,4.68,0,0,1-1.85.38A6.54,6.54,0,0,1,22.62,46a5.6,5.6,0,0,1-2-1.4,6.26,6.26,0,0,1-1.24-2.11A7.68,7.68,0,0,1,19,39.86a7.94,7.94,0,0,1,.43-2.66,6.4,6.4,0,0,1,1.24-2.14,5.57,5.57,0,0,1,2-1.44,6.54,6.54,0,0,1,2.64-.52,6.15,6.15,0,0,1,1.91.3,5.66,5.66,0,0,1,1.67.87,4.8,4.8,0,0,1,1.82,3.35H28A2.72,2.72,0,0,0,27,36a2.82,2.82,0,0,0-1.74-.54,3.22,3.22,0,0,0-1.61.37,3.08,3.08,0,0,0-1.08,1,4.69,4.69,0,0,0-.6,1.41,7.34,7.34,0,0,0-.19,1.63A6.82,6.82,0,0,0,22,41.43a4.36,4.36,0,0,0,.6,1.37,3.18,3.18,0,0,0,1.08,1,3.33,3.33,0,0,0,1.61.37,2.75,2.75,0,0,0,3-2.76H25.48v-2.1h5.37v6.92H29.06l-.29-1.45A4.25,4.25,0,0,1,27.11,46.11Z"/><path class="cls-2" d="M40,33.41a4,4,0,0,1,1.55.28,3.53,3.53,0,0,1,1.18.76,3.42,3.42,0,0,1,.76,1.12,3.63,3.63,0,0,1,.26,1.37,3.78,3.78,0,0,1-.48,2,3,3,0,0,1-1.55,1.26v0a2.18,2.18,0,0,1,.86.43,2.54,2.54,0,0,1,.56.7,3.6,3.6,0,0,1,.31.89,6.45,6.45,0,0,1,.13,1c0,.2,0,.44,0,.72s0,.55.06.84a5.06,5.06,0,0,0,.15.81,1.81,1.81,0,0,0,.29.66H41.34a5,5,0,0,1-.29-1.45c0-.57-.09-1.1-.16-1.62a2.57,2.57,0,0,0-.61-1.47,2.09,2.09,0,0,0-1.52-.46H35.94v5H33.13V33.41ZM39,39.2a2.11,2.11,0,0,0,1.45-.43,1.8,1.8,0,0,0,.48-1.4A1.71,1.71,0,0,0,40.48,36,2.16,2.16,0,0,0,39,35.6H35.94v3.6Z"/><path class="cls-2" d="M55.64,33.41v2.37H48.88v2.74h6.21v2.19H48.88v3.13h6.9v2.37H46.07V33.41Z"/><path class="cls-2" d="M67.26,33.41v2.37H60.5v2.74h6.2v2.19H60.5v3.13h6.9v2.37H57.69V33.41Z"/><path class="cls-2" d="M72.1,33.41,77.44,42h0V33.41h2.64v12.8H77.29L72,37.64h0v8.57H69.3V33.41Z"/><text/></svg>